<?xml version="1.0" encoding="UTF-8" standalone="no"?>
<!-- Created with Inkscape (http://www.inkscape.org/) -->

<svg
   xmlns:dc="http://purl.org/dc/elements/1.1/"
   xmlns:cc="http://creativecommons.org/ns#"
   xmlns:rdf="http://www.w3.org/1999/02/22-rdf-syntax-ns#"
   xmlns:svg="http://www.w3.org/2000/svg"
   xmlns="http://www.w3.org/2000/svg"
   xmlns:sodipodi="http://sodipodi.sourceforge.net/DTD/sodipodi-0.dtd"
   xmlns:inkscape="http://www.inkscape.org/namespaces/inkscape"
   width="744.09448819"
   height="1052.3622047"
   id="svg2"
   version="1.1"
   inkscape:version="0.48.5 r10040"
   sodipodi:docname="down_4.svg"
   inkscape:export-filename="/home/tom/Programming/C/beware-the-jabberwock/assets/son/down_4.png"
   inkscape:export-xdpi="90"
   inkscape:export-ydpi="90">
  <defs
     id="defs4" />
  <sodipodi:namedview
     id="base"
     pagecolor="#ffffff"
     bordercolor="#666666"
     borderopacity="1.0"
     inkscape:pageopacity="0.0"
     inkscape:pageshadow="2"
     inkscape:zoom="15.839192"
     inkscape:cx="383.99317"
     inkscape:cy="608.12978"
     inkscape:document-units="px"
     inkscape:current-layer="layer1"
     showgrid="false"
     inkscape:window-width="2560"
     inkscape:window-height="1374"
     inkscape:window-x="0"
     inkscape:window-y="27"
     inkscape:window-maximized="1" />
  <metadata
     id="metadata7">
    <rdf:RDF>
      <cc:Work
         rdf:about="">
        <dc:format>image/svg+xml</dc:format>
        <dc:type
           rdf:resource="http://purl.org/dc/dcmitype/StillImage" />
        <dc:title></dc:title>
      </cc:Work>
    </rdf:RDF>
  </metadata>
  <g
     inkscape:label="Layer 1"
     inkscape:groupmode="layer"
     id="layer1">
    <path
       sodipodi:type="arc"
       style="fill:#ffeeaa"
       id="path3059"
       sodipodi:cx="380.95377"
       sodipodi:cy="417.2919"
       sodipodi:rx="6.4397225"
       sodipodi:ry="6.3765879"
       d="m 387.39349,417.2919 a 6.4397225,6.3765879 0 1 1 -12.87945,0 6.4397225,6.3765879 0 1 1 12.87945,0 z"
       inkscape:export-filename="/home/tom/Programming/C/beware-the-jabberwock/assets/son/down.png"
       inkscape:export-xdpi="190.67792"
       inkscape:export-ydpi="190.67792" />
    <path
       style="fill:none;stroke:#000000;stroke-width:1px;stroke-linecap:butt;stroke-linejoin:miter;stroke-opacity:1"
       d="m 374.45092,417.2919 c -0.2661,-0.0506 -0.0151,-0.21969 -0.0631,-0.31567 -0.0133,-0.0266 -0.0498,-0.0365 -0.0631,-0.0631 -0.008,-0.0166 0,-0.21953 0,-0.25254 0,-0.0284 -0.01,-0.17019 0,-0.18941 0.0133,-0.0266 0.0498,-0.0365 0.0631,-0.0631 0.009,-0.0188 -0.009,-0.0443 0,-0.0631 0.0133,-0.0266 0.0498,-0.0365 0.0631,-0.0631 0.009,-0.0188 -0.009,-0.0443 0,-0.0631 0.0133,-0.0266 0.0421,-0.0421 0.0631,-0.0631 0.0766,-0.0766 0.16124,-0.13988 0.1894,-0.25254 0.008,-0.0308 -0.0167,-0.21915 0,-0.25253 0.0133,-0.0266 0.0498,-0.0365 0.0631,-0.0631 0.008,-0.0166 0,-0.21952 0,-0.25254 0,-0.16836 0,-0.33672 0,-0.50507 0,-0.0153 -0.002,-0.18738 0,-0.18941 0.0149,-0.0149 0.0482,0.0149 0.0631,0 0.0298,-0.0298 -0.0188,-0.0886 0,-0.12627 0.0133,-0.0266 0.0498,-0.0365 0.0631,-0.0631 0.009,-0.0188 -0.0149,-0.0482 0,-0.0631 0.0149,-0.0149 0.0483,0.0149 0.0631,0 0.0149,-0.0149 -0.0149,-0.0483 0,-0.0631 0.0149,-0.0149 0.0482,0.0149 0.0631,0 0.002,-0.002 0,-0.17409 0,-0.1894 0,-0.16836 -0.021,0.021 0.0631,-0.0631 0.0129,-0.0129 -0.0125,-0.16437 0,-0.1894 0.0133,-0.0266 0.0498,-0.0365 0.0631,-0.0631 0.009,-0.0188 -0.009,-0.0443 0,-0.0631 0.0266,-0.0532 0.0996,-0.073 0.12627,-0.12627 0.009,-0.0188 -0.0149,-0.0483 0,-0.0631 0.0149,-0.0149 0.0483,0.0149 0.0631,0 0.0149,-0.0149 -0.009,-0.0443 0,-0.0631 0.0133,-0.0266 0.0498,-0.0365 0.0631,-0.0631 0.009,-0.0188 -0.009,-0.0443 0,-0.0631 0.13138,-0.26275 -0.004,0.0675 0.12627,-0.0631 0.0149,-0.0149 -0.009,-0.0443 0,-0.0631 0.13137,-0.26275 -0.004,0.0675 0.12627,-0.0631 0.0149,-0.0149 -0.0149,-0.0483 0,-0.0631 0.0149,-0.0149 0.0443,0.009 0.0631,0 0.0266,-0.0133 0.0365,-0.0498 0.0631,-0.0631 0.0188,-0.009 0.0421,0 0.0631,0 0.0211,-0.0211 0.0365,-0.0498 0.0631,-0.0631 0.0188,-0.009 0.0443,0.009 0.0631,0 0.0532,-0.0266 0.073,-0.0996 0.12627,-0.12626 0.0376,-0.0188 0.0965,0.0298 0.12627,0 0.0149,-0.0149 -0.009,-0.0443 0,-0.0631 0.0311,-0.0621 0.22147,-0.19041 0.25254,-0.25254 0.009,-0.0188 -0.0149,-0.0482 0,-0.0631 0.0298,-0.0298 0.0965,0.0298 0.12627,0 0.0149,-0.0149 -0.0149,-0.0483 0,-0.0631 0.0298,-0.0298 0.0965,0.0298 0.12627,0 0.0149,-0.0149 -0.009,-0.0443 0,-0.0631 0.0133,-0.0266 0.0421,-0.0421 0.0631,-0.0631 0.0211,-0.021 0.0365,-0.0498 0.0631,-0.0631 0.0188,-0.009 0.0443,0.009 0.0631,0 0.0266,-0.0133 0.0365,-0.0498 0.0631,-0.0631 0.0188,-0.009 0.0443,0.009 0.0631,0 0.20939,-0.2094 -0.0595,0.0298 0.12627,-0.0631 0.0266,-0.0133 0.0365,-0.0498 0.0631,-0.0631 0.0188,-0.009 0.0483,0.0149 0.0631,0 0.0149,-0.0149 -0.0149,-0.0483 0,-0.0631 0.0298,-0.0298 0.0965,0.0298 0.12627,0 0.0149,-0.0149 -0.0149,-0.0482 0,-0.0631 0.0149,-0.0149 0.0443,0.009 0.0631,0 0.0266,-0.0133 0.0365,-0.0498 0.0631,-0.0631 0.0188,-0.009 0.0483,0.0149 0.0631,0 0.0149,-0.0149 -0.0149,-0.0482 0,-0.0631 0.0149,-0.0149 0.0443,0.009 0.0631,0 0.0266,-0.0133 0.0365,-0.0498 0.0631,-0.0631 0.0188,-0.009 0.0482,0.0149 0.0631,0 0.0149,-0.0149 -0.0149,-0.0482 0,-0.0631 0.0298,-0.0298 0.0886,0.0188 0.12627,0 0.0266,-0.0133 0.0365,-0.0498 0.0631,-0.0631 0.0188,-0.009 0.0443,0.009 0.0631,0 0.0266,-0.0133 0.0365,-0.0498 0.0631,-0.0631 0.0188,-0.009 0.0482,0.0149 0.0631,0 0.0149,-0.0149 -0.0149,-0.0482 0,-0.0631 0.0149,-0.0149 0.0443,0.009 0.0631,0 0.0266,-0.0133 0.0365,-0.0498 0.0631,-0.0631 0.0343,-0.0171 0.23526,0.0173 0.25254,0 0.0149,-0.0149 -0.0149,-0.0482 0,-0.0631 0.0298,-0.0298 0.0965,0.0298 0.12627,0 0.0149,-0.0149 -0.0149,-0.0483 0,-0.0631 0.0298,-0.0298 0.0886,0.0188 0.12627,0 0.0266,-0.0133 0.0365,-0.0498 0.0631,-0.0631 0.0397,-0.0198 0.21286,0.0198 0.25254,0 0.0266,-0.0133 0.0365,-0.0498 0.0631,-0.0631 0.0188,-0.009 0.0443,0.009 0.0631,0 0.0266,-0.0133 0.0365,-0.0498 0.0631,-0.0631 0.0376,-0.0188 0.0886,0.0188 0.12627,0 0.0266,-0.0133 0.0365,-0.0498 0.0631,-0.0631 0.0376,-0.0188 0.0886,0.0188 0.12626,0 0.0266,-0.0133 0.0365,-0.0498 0.0631,-0.0631 0.0188,-0.009 0.0483,0.0149 0.0631,0 0.0149,-0.0149 -0.0149,-0.0482 0,-0.0631 0.0222,-0.0222 0.27207,0.0218 0.31568,0 0.0266,-0.0133 0.0365,-0.0498 0.0631,-0.0631 0.0188,-0.009 0.0421,0 0.0631,0 0.021,0 0.0421,0 0.0631,0 0.12627,0 0.25254,0 0.37881,0 0.12627,0 0.25253,0 0.3788,0 0.0211,0 0.0421,0 0.0631,0 0.021,0 0.0443,-0.009 0.0631,0 0.0266,0.0133 0.0365,0.0498 0.0631,0.0631 0.0188,0.009 0.0421,0 0.0631,0 0.0211,0 0.0421,0 0.0631,0 0.12627,0 0.25253,0 0.3788,0 0.0284,0 0.17019,-0.01 0.18941,0 0.20939,0.2094 -0.0595,-0.0298 0.12627,0.0631 0.0266,0.0133 0.0365,0.0498 0.0631,0.0631 0.0188,0.009 0.0421,0 0.0631,0 0.0447,0 0.36248,-0.008 0.3788,0 0.0266,0.0133 0.0365,0.0498 0.0631,0.0631 0.0376,0.0188 0.0965,-0.0298 0.12627,0 0.0149,0.0149 -0.0149,0.0482 0,0.0631 0.0222,0.0222 0.27206,-0.0218 0.31567,0 0.0266,0.0133 0.0365,0.0498 0.0631,0.0631 0.0403,0.0202 0.20172,-0.0169 0.25254,0 0.0446,0.0149 0.0816,0.0482 0.12627,0.0631 0.02,0.007 0.0432,-0.007 0.0631,0 0.0446,0.0149 0.0816,0.0483 0.12626,0.0631 0.02,0.007 0.0483,-0.0149 0.0631,0 0.0149,0.0149 -0.0149,0.0482 0,0.0631 0.0298,0.0298 0.0886,-0.0188 0.12627,0 0.0266,0.0133 0.0365,0.0498 0.0631,0.0631 0.0188,0.009 0.0483,-0.0149 0.0631,0 0.0149,0.0149 -0.0149,0.0483 0,0.0631 0.0298,0.0298 0.0965,-0.0298 0.12627,0 0.0149,0.0149 -0.0149,0.0483 0,0.0631 0.0149,0.0149 0.0443,-0.009 0.0631,0 0.0266,0.0133 0.0365,0.0498 0.0631,0.0631 0.0188,0.009 0.0443,-0.009 0.0631,0 0.28894,0.14447 -0.26791,-0.0262 0.1894,0.12627 0.02,0.007 0.0483,-0.0149 0.0631,0 0.0149,0.0149 -0.0149,0.0482 0,0.0631 0.0149,0.0149 0.0482,-0.0149 0.0631,0 0.0149,0.0149 -0.0149,0.0483 0,0.0631 0.0149,0.0149 0.0443,-0.009 0.0631,0 0.0758,0.0379 0.11364,0.15152 0.1894,0.1894 0.0188,0.009 0.0482,-0.0149 0.0631,0 0.0149,0.0149 -0.0149,0.0482 0,0.0631 0.0298,0.0298 0.0965,-0.0298 0.12626,0 0.0149,0.0149 -0.009,0.0443 0,0.0631 0.008,0.0168 0.17264,0.18102 0.18941,0.1894 0.0188,0.009 0.0482,-0.0149 0.0631,0 0.0298,0.0298 -0.0298,0.0965 0,0.12627 0.0149,0.0149 0.0483,-0.0149 0.0631,0 0.0149,0.0149 -0.009,0.0443 0,0.0631 0.0379,0.0758 0.15152,0.11364 0.1894,0.1894 0.009,0.0188 -0.009,0.0443 0,0.0631 0.0169,0.0337 0.15617,0.15616 0.1894,0.1894 0.0332,0.0332 0.15569,0.17254 0.18941,0.1894 0.0188,0.009 0.0482,-0.0149 0.0631,0 0.13063,0.13063 -0.19961,-0.005 0.0631,0.12627 0.0188,0.009 0.0482,-0.0149 0.0631,0 0.0298,0.0298 -0.0298,0.0965 0,0.12627 0.0149,0.0149 0.0482,-0.0149 0.0631,0 0.0149,0.0149 -0.009,0.0443 0,0.0631 0.0133,0.0266 0.0498,0.0365 0.0631,0.0631 0.009,0.0188 -0.0149,0.0482 0,0.0631 0.0149,0.0149 0.0483,-0.0149 0.0631,0 0.0149,0.0149 -0.009,0.0443 0,0.0631 0.0133,0.0266 0.0498,0.0365 0.0631,0.0631 0.009,0.0188 -0.009,0.0443 0,0.0631 0.0133,0.0266 0.0498,0.0365 0.0631,0.0631 0.009,0.0188 -0.009,0.0443 0,0.0631 0.0133,0.0266 0.0498,0.0365 0.0631,0.0631 0.009,0.0188 -0.009,0.0443 0,0.0631 0.0133,0.0266 0.0498,0.0365 0.0631,0.0631 0.0188,0.0376 -0.0298,0.0965 0,0.12627 0.0149,0.0149 0.0483,-0.0149 0.0631,0 0.0149,0.0149 -0.009,0.0443 0,0.0631 0.0133,0.0266 0.0498,0.0365 0.0631,0.0631 0.0188,0.0376 -0.0298,0.0965 0,0.12627 0.0149,0.0149 0.0483,-0.0149 0.0631,0 0.0149,0.0149 -0.009,0.0443 0,0.0631 0.0133,0.0266 0.0537,0.0349 0.0631,0.0631 0.0133,0.0399 -0.0188,0.0886 0,0.12627 0.009,0.0188 0.0482,-0.0149 0.0631,0 0.0316,0.0316 -0.0316,0.15783 0,0.1894 0.0149,0.0149 0.0482,-0.0149 0.0631,0 0.0129,0.0129 -0.0125,0.16437 0,0.1894 0.0133,0.0266 0.0498,0.0365 0.0631,0.0631 0.0188,0.0376 -0.0298,0.0965 0,0.12627 0.0149,0.0149 0.0483,-0.0149 0.0631,0 0.0129,0.0129 -0.0125,0.16437 0,0.1894 0.0266,0.0532 0.0996,0.073 0.12627,0.12627 0.0198,0.0397 -0.0198,0.21286 0,0.25254 0.0133,0.0266 0.0498,0.0365 0.0631,0.0631 0.009,0.0188 0,0.0421 0,0.0631 0,0.021 0,0.0421 0,0.0631 0,0.10523 0,0.21045 0,0.31567 0,0.0211 -0.009,0.0443 0,0.0631 0.0133,0.0266 0.0498,0.0365 0.0631,0.0631 0.01,0.0192 0,0.16097 0,0.18941 0,0.12627 0,0.25253 0,0.3788 0,0.29463 0,0.58926 0,0.88389 0,0.12627 0,0.25254 0,0.3788 0,0.0211 0,0.0421 0,0.0631 0,0.021 -0.009,0.0443 0,0.0631 0.0133,0.0266 0.0498,0.0365 0.0631,0.0631 0.008,0.0166 0,0.21952 0,0.25254 0,0.14731 0,0.29462 0,0.44194 0,0.0284 0.01,0.17019 0,0.1894 -0.0133,0.0266 -0.0498,0.0365 -0.0631,0.0631 -0.0125,0.025 0.0129,0.17649 0,0.1894 -0.0149,0.0149 -0.0483,-0.0149 -0.0631,0 -0.0298,0.0298 0.0298,0.0965 0,0.12627 -0.0149,0.0149 -0.0482,-0.0149 -0.0631,0 -0.0298,0.0298 0.0188,0.0886 0,0.12627 -0.0266,0.0532 -0.0996,0.073 -0.12627,0.12627 -0.009,0.0188 0.009,0.0443 0,0.0631 -0.0266,0.0532 -0.0996,0.073 -0.12627,0.12627 -0.009,0.0188 0.0149,0.0482 0,0.0631 -0.0149,0.0149 -0.0482,-0.0149 -0.0631,0 -0.0149,0.0149 0.009,0.0443 0,0.0631 -0.0133,0.0266 -0.0498,0.0365 -0.0631,0.0631 -0.0188,0.0377 0.0298,0.0965 0,0.12627 -0.0149,0.0149 -0.0482,-0.0149 -0.0631,0 -0.0149,0.0149 0.009,0.0443 0,0.0631 -0.0133,0.0266 -0.0498,0.0365 -0.0631,0.0631 -0.009,0.0188 0.0149,0.0483 0,0.0631 -0.0149,0.0149 -0.0482,-0.0149 -0.0631,0 -0.0298,0.0298 0.0298,0.0965 0,0.12627 -0.0149,0.0149 -0.0483,-0.0149 -0.0631,0 -0.0149,0.0149 0.009,0.0443 0,0.0631 -0.0266,0.0532 -0.0996,0.073 -0.12627,0.12627 -0.009,0.0188 0.0149,0.0482 0,0.0631 -0.0149,0.0149 -0.0482,-0.0149 -0.0631,0 -0.0298,0.0298 0.0298,0.0965 0,0.12627 -0.0149,0.0149 -0.0482,-0.0149 -0.0631,0 -0.0149,0.0149 0.0149,0.0483 0,0.0631 -0.0149,0.0149 -0.0482,-0.0149 -0.0631,0 -0.0149,0.0149 0.0149,0.0482 0,0.0631 -0.0149,0.0149 -0.0482,-0.0149 -0.0631,0 -0.0149,0.0149 0.0149,0.0483 0,0.0631 -0.0149,0.0149 -0.0483,-0.0149 -0.0631,0 -0.0149,0.0149 0.009,0.0443 0,0.0631 -0.13137,0.26275 0.004,-0.0675 -0.12627,0.0631 -0.0149,0.0149 0.0149,0.0482 0,0.0631 -0.0149,0.0149 -0.0482,-0.0149 -0.0631,0 -0.0149,0.0149 0.0149,0.0482 0,0.0631 -0.0149,0.0149 -0.0483,-0.0149 -0.0631,0 -0.0149,0.0149 0.0149,0.0483 0,0.0631 -0.0149,0.0149 -0.0482,-0.0149 -0.0631,0 -0.0149,0.0149 0.0149,0.0482 0,0.0631 -0.0149,0.0149 -0.0482,-0.0149 -0.0631,0 -0.0149,0.0149 0.0149,0.0483 0,0.0631 -0.0149,0.0149 -0.0482,-0.0149 -0.0631,0 -0.0149,0.0149 0.0149,0.0482 0,0.0631 -0.0149,0.0149 -0.0443,-0.009 -0.0631,0 -0.0532,0.0266 -0.073,0.0996 -0.12627,0.12627 -0.0188,0.009 -0.0483,-0.0149 -0.0631,0 -0.0149,0.0149 0.009,0.0443 0,0.0631 -0.0133,0.0266 -0.0498,0.0365 -0.0631,0.0631 -0.009,0.0188 0.0188,0.0537 0,0.0631 -0.0842,0.0421 -0.2315,-0.0421 -0.31568,0 -0.0188,0.009 0.0149,0.0482 0,0.0631 -0.0149,0.0149 -0.0443,-0.009 -0.0631,0 -0.0266,0.0133 -0.0365,0.0498 -0.0631,0.0631 -0.0376,0.0188 -0.0965,-0.0298 -0.12627,0 -0.0149,0.0149 0.0149,0.0483 0,0.0631 -0.0298,0.0298 -0.0965,-0.0298 -0.12627,0 -0.0149,0.0149 0.0149,0.0482 0,0.0631 -0.0149,0.0149 -0.0443,-0.009 -0.0631,0 -0.0266,0.0133 -0.0365,0.0498 -0.0631,0.0631 -0.0188,0.009 -0.0483,-0.0149 -0.0631,0 -0.0149,0.0149 0.0149,0.0482 0,0.0631 -0.0149,0.0149 -0.0482,-0.0149 -0.0631,0 -0.0149,0.0149 0.0149,0.0483 0,0.0631 -0.0149,0.0149 -0.0482,-0.0149 -0.0631,0 -0.0149,0.0149 0.0149,0.0482 0,0.0631 -0.0298,0.0298 -0.0965,-0.0298 -0.12626,0 -0.0149,0.0149 0.0149,0.0483 0,0.0631 -0.0298,0.0298 -0.0965,-0.0298 -0.12627,0 -0.0149,0.0149 0.0149,0.0482 0,0.0631 -0.0298,0.0298 -0.0886,-0.0188 -0.12627,0 -0.0266,0.0133 -0.0421,0.0421 -0.0631,0.0631 -0.0421,0 -0.0863,-0.0133 -0.12627,0 -0.0282,0.009 -0.0349,0.0537 -0.0631,0.0631 -2.9e-4,10e-5 -0.18934,-6e-5 -0.1894,0 -0.0149,0.0149 0.0149,0.0482 0,0.0631 -0.0298,0.0298 -0.0965,-0.0298 -0.12627,0 -0.0149,0.0149 0.0149,0.0483 0,0.0631 -0.0298,0.0298 -0.0886,-0.0188 -0.12627,0 -0.0266,0.0133 -0.0365,0.0498 -0.0631,0.0631 -0.0376,0.0188 -0.0886,-0.0188 -0.12627,0 -0.0266,0.0133 -0.0365,0.0498 -0.0631,0.0631 -0.0188,0.009 -0.0421,0 -0.0631,0 -0.10522,0 -0.21044,0 -0.31567,0 -0.021,0 -0.0421,0 -0.0631,0 -0.0211,0 -0.0443,-0.009 -0.0631,0 -0.0266,0.0133 -0.0365,0.0498 -0.0631,0.0631 -0.0436,0.0218 -0.29351,-0.0222 -0.31567,0 -0.0149,0.0149 0.0149,0.0483 0,0.0631 -0.007,0.007 -0.29994,-0.005 -0.31568,0 -0.0282,0.009 -0.0349,0.0537 -0.0631,0.0631 -0.043,0.0143 -0.2822,-0.0167 -0.31567,0 -0.0266,0.0133 -0.0365,0.0498 -0.0631,0.0631 -0.0376,0.0188 -0.0886,-0.0188 -0.12627,0 -0.0266,0.0133 -0.0365,0.0498 -0.0631,0.0631 -0.0166,0.008 -0.21953,0 -0.25254,0 -0.1894,0 -0.37881,0 -0.56821,0 -0.16836,0 -0.33672,0 -0.50508,0 -0.0284,0 -0.17019,0.01 -0.1894,0 -0.0266,-0.0133 -0.0365,-0.0498 -0.0631,-0.0631 -0.0163,-0.008 -0.33405,0 -0.3788,0 -0.0211,0 -0.0443,0.009 -0.0631,0 -0.0266,-0.0133 -0.0365,-0.0498 -0.0631,-0.0631 -0.0188,-0.009 -0.0443,0.009 -0.0631,0 -0.0266,-0.0133 -0.0365,-0.0498 -0.0631,-0.0631 -0.0376,-0.0188 -0.0965,0.0298 -0.12627,0 -0.0149,-0.0149 0.0149,-0.0483 0,-0.0631 -0.0298,-0.0298 -0.0965,0.0298 -0.12627,0 -0.0149,-0.0149 0.0149,-0.0482 0,-0.0631 -0.0298,-0.0298 -0.0965,0.0298 -0.12627,0 -0.0149,-0.0149 0.0149,-0.0483 0,-0.0631 -0.0298,-0.0298 -0.0886,0.0188 -0.12627,0 -0.0266,-0.0133 -0.0365,-0.0498 -0.0631,-0.0631 -0.0188,-0.009 -0.0421,0 -0.0631,0 -0.0421,-0.0211 -0.0871,-0.037 -0.12627,-0.0631 -0.0575,-0.0383 -0.13344,-0.16142 -0.1894,-0.1894 -0.0188,-0.009 -0.0482,0.0149 -0.0631,0 -0.0149,-0.0149 0.0149,-0.0482 0,-0.0631 -0.0149,-0.0149 -0.0443,0.009 -0.0631,0 -0.0266,-0.0133 -0.0365,-0.0498 -0.0631,-0.0631 -0.0188,-0.009 -0.0483,0.0149 -0.0631,0 -0.0149,-0.0149 0.0149,-0.0482 0,-0.0631 -0.0149,-0.0149 -0.0482,0.0149 -0.0631,0 -0.0149,-0.0149 0.0149,-0.0483 0,-0.0631 -0.13063,-0.13062 0.005,0.19962 -0.12627,-0.0631 -0.009,-0.0188 0.0149,-0.0483 0,-0.0631 -0.0149,-0.0149 -0.0482,0.0149 -0.0631,0 -0.0149,-0.0149 0.0149,-0.0482 0,-0.0631 -0.0298,-0.0298 -0.0886,0.0188 -0.12626,0 -0.0266,-0.0133 -0.0365,-0.0498 -0.0631,-0.0631 -0.0188,-0.009 -0.0483,0.0149 -0.0631,0 -0.0333,-0.0333 -0.0299,-0.093 -0.0631,-0.12626 -0.0298,-0.0298 -0.0965,0.0298 -0.12627,0 -0.13062,-0.13063 0.19962,0.005 -0.0631,-0.12627 -0.0188,-0.009 -0.0483,0.0149 -0.0631,0 -0.0149,-0.0149 0.009,-0.0443 0,-0.0631 -0.008,-0.0168 -0.17264,-0.18102 -0.1894,-0.1894 -0.0188,-0.009 -0.0482,0.0149 -0.0631,0 -0.0149,-0.0149 0.009,-0.0443 0,-0.0631 -0.0266,-0.0532 -0.0996,-0.073 -0.12627,-0.12627 -0.009,-0.0188 0.0149,-0.0482 0,-0.0631 -0.0298,-0.0298 -0.0965,0.0298 -0.12627,0 -0.0149,-0.0149 0.0149,-0.0482 0,-0.0631 -0.0149,-0.0149 -0.0483,0.0149 -0.0631,0 -0.0298,-0.0298 0.0188,-0.0886 0,-0.12627 -0.13137,-0.26275 0.004,0.0675 -0.12627,-0.0631 -0.0298,-0.0298 0.0298,-0.0965 0,-0.12627 -0.0149,-0.0149 -0.0482,0.0149 -0.0631,0 -0.0149,-0.0149 0.0149,-0.0482 0,-0.0631 -0.0149,-0.0149 -0.0482,0.0149 -0.0631,0 -0.0333,-0.0333 -0.0299,-0.093 -0.0631,-0.12627 -0.0149,-0.0149 -0.0482,0.0149 -0.0631,0 -0.0333,-0.0333 -0.037,-0.0871 -0.0631,-0.12627 -0.033,-0.0495 -0.0997,-0.073 -0.12627,-0.12627 -0.009,-0.0188 0.0149,-0.0483 0,-0.0631 -0.13063,-0.13063 0.005,0.19961 -0.12627,-0.0631 -0.0188,-0.0376 0.0298,-0.0965 0,-0.12627 -0.13062,-0.13062 0.005,0.19962 -0.12627,-0.0631 -0.0188,-0.0377 0.0298,-0.0965 0,-0.12627 -0.0149,-0.0149 -0.0482,0.0149 -0.0631,0 -0.0316,-0.0316 0.0316,-0.15784 0,-0.1894 -0.0149,-0.0149 -0.0482,0.0149 -0.0631,0 -0.0149,-0.0149 0.009,-0.0443 0,-0.0631 -0.0133,-0.0266 -0.0498,-0.0365 -0.0631,-0.0631 -0.0188,-0.0377 0.0188,-0.0886 0,-0.12627 -0.0133,-0.0266 -0.0498,-0.0365 -0.0631,-0.0631 -0.0188,-0.0376 0.0298,-0.0965 0,-0.12627 -0.0149,-0.0149 -0.0483,0.0149 -0.0631,0 -0.0173,-0.0173 0.0171,-0.21828 0,-0.25253 -0.0133,-0.0266 -0.0498,-0.0365 -0.0631,-0.0631 -0.0188,-0.0376 0.0188,-0.0886 0,-0.12627 -0.0133,-0.0266 -0.0498,-0.0365 -0.0631,-0.0631 -0.0188,-0.0376 0.0188,-0.0886 0,-0.12627 -0.0266,-0.0532 -0.0996,-0.073 -0.12627,-0.12627 -0.009,-0.0188 0.009,-0.0443 0,-0.0631 -0.0133,-0.0266 -0.0498,-0.0365 -0.0631,-0.0631 -0.0188,-0.0376 0.0188,-0.0886 0,-0.12627 -0.0133,-0.0266 -0.0498,-0.0365 -0.0631,-0.0631 -0.0188,-0.0377 0.0298,-0.0965 0,-0.12627 -0.0149,-0.0149 -0.0482,0.0149 -0.0631,0 -0.0149,-0.0149 0.009,-0.0443 0,-0.0631 -0.0133,-0.0266 -0.0498,-0.0365 -0.0631,-0.0631 -0.009,-0.0188 0.009,-0.0443 0,-0.0631 -0.0133,-0.0266 -0.0498,-0.0365 -0.0631,-0.0631 -0.009,-0.0188 0.009,-0.0443 0,-0.0631 -0.0133,-0.0266 -0.0498,-0.0365 -0.0631,-0.0631 -0.009,-0.0188 0.009,-0.0443 0,-0.0631 -0.0133,-0.0266 -0.0498,-0.0365 -0.0631,-0.0631 -0.0188,-0.0376 0.0298,-0.0965 0,-0.12627 -0.0149,-0.0149 -0.0482,0.0149 -0.0631,0 -0.0298,-0.0298 0.0298,-0.0965 0,-0.12627 -0.0149,-0.0149 -0.0483,0.0149 -0.0631,0 -0.0316,-0.0316 0.0316,-0.15783 0,-0.1894 -0.0149,-0.0149 -0.0482,0.0149 -0.0631,0 -0.0149,-0.0149 -0.003,-0.0424 0,-0.0631 0.0176,-0.10585 0.0421,-0.21045 0.0631,-0.31568 z"
       id="path3065"
       inkscape:connector-curvature="0"
       inkscape:export-filename="/home/tom/Programming/C/beware-the-jabberwock/assets/son/down.png"
       inkscape:export-xdpi="190.67792"
       inkscape:export-ydpi="190.67792" />
    <path
       style="fill:none;stroke:#000000;stroke-width:1px;stroke-linecap:butt;stroke-linejoin:miter;stroke-opacity:1"
       d="m 376.85003,417.48131 c 0.0842,0.021 0.16746,0.0461 0.25254,0.0631 0.0413,0.008 0.0842,0 0.12627,0 0.10523,0 0.21045,0 0.31567,0 0.27359,0 0.54717,0 0.82075,0 0.0421,0 0.0842,0 0.12627,0 0.0421,0 0.0854,-0.0102 0.12627,0 0.0457,0.0114 0.0806,0.0517 0.12627,0.0631 3e-5,0 0.3025,0.007 0.31567,0 0.0266,-0.0133 0.0365,-0.0498 0.0631,-0.0631 0.0188,-0.009 0.0421,0 0.0631,0 0.0211,0 0.0421,0 0.0631,0 0.10522,0 0.21045,0 0.31567,0 0.033,0 0.23594,0.008 0.25254,0 0.0963,-0.0481 0.0631,-0.16591 0.0631,-0.25254 0,-0.0421 0,-0.0842 0,-0.12627 0,-0.021 0.007,-0.0432 0,-0.0631 -0.0149,-0.0446 -0.0482,-0.0816 -0.0631,-0.12627 -0.007,-0.02 0.007,-0.0432 0,-0.0631 -0.0149,-0.0446 -0.0517,-0.0806 -0.0631,-0.12627 -0.0102,-0.0408 0.0133,-0.0863 0,-0.12627 -0.009,-0.0282 -0.0466,-0.0384 -0.0631,-0.0631 -0.0261,-0.0392 -0.037,-0.0871 -0.0631,-0.12627 -0.0165,-0.0248 -0.0466,-0.0384 -0.0631,-0.0631 -0.0261,-0.0392 -0.0482,-0.0816 -0.0631,-0.12627 -0.007,-0.02 0.0117,-0.0456 0,-0.0631 -0.033,-0.0495 -0.0996,-0.073 -0.12627,-0.12627 -0.0188,-0.0376 0.0133,-0.0863 0,-0.12627 -0.009,-0.0282 -0.0498,-0.0365 -0.0631,-0.0631 -0.009,-0.0188 0.009,-0.0443 0,-0.0631 -0.13137,-0.26275 0.004,0.0675 -0.12627,-0.0631 -0.0298,-0.0298 0.0298,-0.0965 0,-0.12626 -0.0149,-0.0149 -0.0443,0.009 -0.0631,0 -0.0266,-0.0133 -0.0365,-0.0498 -0.0631,-0.0631 -0.0188,-0.009 -0.0443,0.009 -0.0631,0 -0.0266,-0.0133 -0.0365,-0.0498 -0.0631,-0.0631 -0.0188,-0.009 -0.0443,0.009 -0.0631,0 -0.0266,-0.0133 -0.0365,-0.0498 -0.0631,-0.0631 -0.0376,-0.0188 -0.0886,0.0188 -0.12627,0 -0.0266,-0.0133 -0.0365,-0.0498 -0.0631,-0.0631 -0.0188,-0.009 -0.0443,0.009 -0.0631,0 -0.0532,-0.0266 -0.073,-0.0996 -0.12627,-0.12627 -0.0166,-0.008 -0.21953,0 -0.25254,0 -0.0284,0 -0.17019,-0.01 -0.1894,0 -0.0266,0.0133 -0.0365,0.0498 -0.0631,0.0631 -0.0188,0.009 -0.0482,-0.0149 -0.0631,0 -0.0149,0.0149 0.0149,0.0483 0,0.0631 -0.0298,0.0298 -0.0965,-0.0298 -0.12627,0 -0.0149,0.0149 0.0149,0.0482 0,0.0631 -0.0149,0.0149 -0.0443,-0.009 -0.0631,0 -0.0266,0.0133 -0.0421,0.0421 -0.0631,0.0631 -0.0211,0.021 -0.0498,0.0365 -0.0631,0.0631 0,0.16836 0.0211,-0.021 -0.0631,0.0631 -0.0149,0.0149 0.0149,0.0482 0,0.0631 -0.0149,0.0149 -0.0482,-0.0149 -0.0631,0 -0.0149,0.0149 0.0149,0.0482 0,0.0631 -0.0149,0.0149 -0.0483,-0.0149 -0.0631,0 -0.0149,0.0149 0.009,0.0443 0,0.0631 -0.0133,0.0266 -0.0498,0.0365 -0.0631,0.0631 -0.009,0.0188 0.009,0.0443 0,0.0631 -0.0133,0.0266 -0.0498,0.0365 -0.0631,0.0631 -0.0125,0.025 0.0129,0.1765 0,0.18941 -0.0149,0.0149 -0.0482,-0.0149 -0.0631,0 -0.0298,0.0298 0.0188,0.0886 0,0.12626 -0.0133,0.0266 -0.0498,0.0365 -0.0631,0.0631 -0.0253,0.0505 0.0253,0.1389 0,0.1894 -0.0133,0.0266 -0.0498,0.0365 -0.0631,0.0631 -0.009,0.0188 0,0.0421 0,0.0631 0,0.10523 0,0.21045 0,0.31567 0,0.0211 0,0.0421 0,0.0631 0,0.021 0.009,0.0443 0,0.0631 -0.0549,0.10976 -0.12627,0.21045 -0.18941,0.31568 z"
       id="path3067"
       inkscape:connector-curvature="0"
       inkscape:export-filename="/home/tom/Programming/C/beware-the-jabberwock/assets/son/down.png"
       inkscape:export-xdpi="190.67792"
       inkscape:export-ydpi="190.67792" />
    <path
       style="fill:none;stroke:#000000;stroke-width:1px;stroke-linecap:butt;stroke-linejoin:miter;stroke-opacity:1"
       d="m 382.46901,417.54444 c 0.27295,0.0682 0.16577,0.0631 0.31567,0.0631 0.0211,0 0.0482,-0.0149 0.0631,0 0.0149,0.0149 -0.0149,0.0482 0,0.0631 0.0187,0.0187 0.21343,-0.0195 0.25253,0 0.0266,0.0133 0.0365,0.0498 0.0631,0.0631 0.0397,0.0199 0.21285,-0.0198 0.25254,0 0.0266,0.0133 0.0365,0.0498 0.0631,0.0631 0.0166,0.008 0.21952,0 0.25254,0 0.21045,0 0.4209,0 0.63134,0 0.29463,0 0.58926,0 0.88389,0 0.021,0 0.0421,0 0.0631,0 0.0211,0 0.0483,0.0149 0.0631,0 0.0149,-0.0149 0,-0.0421 0,-0.0631 0,-0.0415 0.0119,-0.15378 0,-0.1894 -0.0149,-0.0446 -0.0517,-0.0806 -0.0631,-0.12627 -0.0208,-0.083 0.0261,-0.23726 0,-0.31567 -0.0188,-0.0565 -0.10744,-0.0698 -0.12627,-0.12627 -0.01,-0.0289 0.014,-0.22444 0,-0.25254 -0.0133,-0.0266 -0.0498,-0.0365 -0.0631,-0.0631 -0.009,-0.0188 0.009,-0.0443 0,-0.0631 -0.0133,-0.0266 -0.0498,-0.0365 -0.0631,-0.0631 -0.009,-0.0188 0.009,-0.0443 0,-0.0631 -0.0266,-0.0532 -0.0996,-0.073 -0.12626,-0.12627 -0.0188,-0.0376 0.0188,-0.0886 0,-0.12626 -0.0133,-0.0266 -0.0498,-0.0365 -0.0631,-0.0631 -0.009,-0.0188 0.009,-0.0443 0,-0.0631 -0.0133,-0.0266 -0.0498,-0.0365 -0.0631,-0.0631 -0.009,-0.0188 0.009,-0.0443 0,-0.0631 -0.0133,-0.0266 -0.0498,-0.0365 -0.0631,-0.0631 -0.009,-0.0188 0.009,-0.0443 0,-0.0631 -0.0379,-0.0758 -0.15152,-0.11364 -0.1894,-0.1894 -0.009,-0.0188 0,-0.0421 0,-0.0631 -0.0211,-0.021 -0.0498,-0.0365 -0.0631,-0.0631 -0.009,-0.0188 0.009,-0.0443 0,-0.0631 -0.13137,-0.26275 0.004,0.0675 -0.12627,-0.0631 -0.13062,-0.13063 0.19962,0.005 -0.0631,-0.12627 -0.0188,-0.009 -0.0482,0.0149 -0.0631,0 -0.0149,-0.0149 0.0149,-0.0483 0,-0.0631 -0.0149,-0.0149 -0.0421,0 -0.0631,0 -0.021,0 -0.0421,0 -0.0631,0 -0.16836,0 -0.33672,0 -0.50508,0 -0.021,0 -0.0482,-0.0149 -0.0631,0 -0.0149,0.0149 0.0149,0.0483 0,0.0631 -0.0298,0.0298 -0.0965,-0.0298 -0.12627,0 -0.0149,0.0149 0.0149,0.0482 0,0.0631 -0.0429,0.0429 -0.12556,-0.0645 -0.18941,0.0631 -0.009,0.0188 0.009,0.0443 0,0.0631 -0.0266,0.0532 -0.0997,0.073 -0.12627,0.12627 -0.009,0.0188 0.009,0.0443 0,0.0631 -0.0133,0.0266 -0.0498,0.0365 -0.0631,0.0631 -0.0125,0.025 0.0129,0.1765 0,0.1894 -0.0149,0.0149 -0.0482,-0.0149 -0.0631,0 -0.0129,0.0129 0.0125,0.16437 0,0.18941 -0.0133,0.0266 -0.0498,0.0365 -0.0631,0.0631 -0.01,0.0192 0,0.16097 0,0.1894 0,0.14732 0,0.29463 0,0.44195 0,0.021 0,0.0421 0,0.0631 0,0.0211 0.009,0.0443 0,0.0631 -0.0133,0.0266 -0.0498,0.0365 -0.0631,0.0631 -0.0218,0.0436 0.0222,0.29351 0,0.31567 -0.0149,0.0149 -0.0483,-0.0149 -0.0631,0 -0.0298,0.0298 0.0361,0.10462 0,0.12627 -0.0972,0.0583 -0.21045,0.0842 -0.31567,0.12627 z"
       id="path3069"
       inkscape:connector-curvature="0"
       inkscape:export-filename="/home/tom/Programming/C/beware-the-jabberwock/assets/son/down.png"
       inkscape:export-xdpi="190.67792"
       inkscape:export-ydpi="190.67792" />
    <path
       style="fill:#c87137;stroke:#000000;stroke-width:1px;stroke-linecap:butt;stroke-linejoin:miter;stroke-opacity:1"
       d="m 378.17586,420.25923 c 0.63786,0.0305 0.0691,0.0651 0.44194,0.1894 0.0417,0.0139 0.37421,0 0.44194,0 0.0211,0 0.0421,0 0.0631,0 0.021,0 0.0443,-0.009 0.0631,0 0.0266,0.0133 0.0365,0.0498 0.0631,0.0631 0.0376,0.0188 0.0863,-0.0133 0.12627,0 0.0446,0.0149 0.0806,0.0517 0.12627,0.0631 0.0817,0.0204 0.16999,-0.0165 0.25253,0 0.0653,0.013 0.12415,0.0501 0.18941,0.0631 0.0413,0.008 0.0842,0 0.12627,0 0.0631,0 0.12627,0 0.1894,0 0.14731,0 0.29463,0 0.44194,0 0.33672,0 0.67344,0 1.01015,0 0.12627,0 0.25254,0 0.37881,0 0.0421,0 0.085,0.008 0.12627,0 0.0653,-0.0131 0.12627,-0.0421 0.1894,-0.0631 0.17319,-0.0577 0.33189,-0.13168 0.50508,-0.1894 0.0631,-0.0211 0.12627,-0.0421 0.1894,-0.0631 0.0421,0 0.0854,0.0102 0.12627,0 0.0457,-0.0114 0.0816,-0.0482 0.12627,-0.0631 0.0399,-0.0133 0.0886,0.0188 0.12627,0 0.0266,-0.0133 0.0349,-0.0537 0.0631,-0.0631 0.0399,-0.0133 0.0886,0.0188 0.12626,0 0.0188,-0.009 0,-0.0421 0,-0.0631 0.0421,0 0.0842,0 0.12627,0 0.0421,0 0.0886,0.0188 0.12627,0 0.16836,-0.0842 -0.1894,-0.0631 0.0631,-0.0631 0.021,0 0.0421,0 0.0631,0 0.0211,0 0.0483,0.0149 0.0631,0 0.0149,-0.0149 0.021,-0.0631 0,-0.0631 -0.0298,0 -0.0421,0.0421 -0.0631,0.0631"
       id="path3079"
       inkscape:connector-curvature="0"
       inkscape:export-filename="/home/tom/Programming/C/beware-the-jabberwock/assets/son/down.png"
       inkscape:export-xdpi="190.67792"
       inkscape:export-ydpi="190.67792" />
    <path
       style="fill:none;stroke:#000000;stroke-width:1px;stroke-linecap:butt;stroke-linejoin:miter;stroke-opacity:1"
       d="m 381.42857,428.25504 c 0,0.23809 0,0.47619 0,0.71428 0,0.0893 -0.0147,0.17979 0,0.26786 0.0155,0.0928 0.0689,0.17598 0.0893,0.26786 0.0393,0.17672 0.0454,0.36008 0.0893,0.53571 0.0457,0.18261 0.12322,0.35581 0.17858,0.53572 0.12743,0.41417 0.24548,0.83129 0.35714,1.25 0.20736,0.77761 0.13212,0.60797 0.35714,1.33928 0.0554,0.17991 0.12322,0.35581 0.17857,0.53572 0.14383,0.46743 0.18517,0.71357 0.35715,1.16071 0.0814,0.21155 0.19618,0.40997 0.26785,0.625 0.0776,0.23283 0.10096,0.48146 0.17857,0.71429 0.0717,0.21503 0.17581,0.41787 0.26786,0.625 0.29211,0.65724 0.60954,1.30321 0.89286,1.96428 0.12627,0.29463 0.23809,0.59524 0.35714,0.89286 0.14881,0.29762 0.30988,0.58942 0.44643,0.89286 0.13154,0.29231 0.2256,0.60054 0.35714,0.89285 0.13655,0.30344 0.29145,0.59841 0.44643,0.89286 0.14271,0.27116 0.32976,0.52023 0.44643,0.80357 0.4009,0.97363 0.0157,0.40431 0.26786,1.16072 0.0421,0.12627 0.13648,0.23087 0.17857,0.35714 0.0188,0.0565 -0.0188,0.1221 0,0.17857 0.0133,0.0399 0.0705,0.0516 0.0893,0.0893 0.0133,0.0266 0,0.0595 0,0.0893 0,0.0298 0,0.0595 0,0.0893"
       id="path3165"
       inkscape:connector-curvature="0"
       inkscape:export-filename="/home/tom/Programming/C/beware-the-jabberwock/assets/son/down.png"
       inkscape:export-xdpi="190.67792"
       inkscape:export-ydpi="190.67792" />
    <path
       style="fill:none;stroke:#000000;stroke-width:1px;stroke-linecap:butt;stroke-linejoin:miter;stroke-opacity:1"
       d="m 380.44643,428.5229 c -0.21583,0.13694 -0.33852,0.37795 -0.53571,0.53571 -0.0838,0.067 -0.18407,0.11154 -0.26786,0.17857 -0.12522,0.10018 -0.29661,0.30519 -0.35714,0.44643 -0.0483,0.11279 -0.0556,0.23915 -0.0893,0.35714 -0.2731,0.95584 0.14818,-0.70162 -0.17857,0.71429 -0.0552,0.23914 -0.14813,0.47076 -0.17857,0.71428 -0.0628,0.50205 0.0591,1.01537 0,1.51786 -0.0644,0.54731 -0.27461,0.9131 -0.44643,1.42857 -0.0685,0.20555 -0.11006,0.41945 -0.17857,0.625 -0.0804,0.24124 -0.19201,0.47158 -0.26786,0.71429 -0.0732,0.23425 -0.0748,0.49189 -0.17857,0.71428 -0.10827,0.23201 -0.3007,0.4145 -0.44643,0.625 -1.37597,1.98751 0.74407,-0.99209 -0.80357,1.07143 -0.5817,0.7756 -0.19282,0.26919 -0.53572,1.16072 -0.24749,0.64348 -0.30328,0.40343 -0.44642,1.07143 -0.36122,1.68568 0.15124,-0.25513 -0.0893,1.42857 -0.0266,0.18634 -0.14763,0.35004 -0.17857,0.53571 -0.0294,0.17614 0,0.35714 0,0.53572 0,0.11904 0,0.23809 0,0.35714 0,0.0298 0.0133,0.0627 0,0.0893 -0.0188,0.0377 -0.0705,0.0516 -0.0893,0.0893 -0.0281,0.0561 0.0281,0.30102 0,0.35714 -0.0188,0.0376 -0.0705,0.0516 -0.0893,0.0893 -0.0133,0.0266 0.021,0.0682 0,0.0893 -0.0421,0.0421 -0.12534,-0.0266 -0.17857,0 -0.0377,0.0188 -0.0595,0.0595 -0.0893,0.0893 -0.0298,0.0298 -0.0595,0.0595 -0.0893,0.0893"
       id="path3167"
       inkscape:connector-curvature="0"
       inkscape:export-xdpi="190.67792"
       inkscape:export-ydpi="190.67792"
       inkscape:export-filename="/home/tom/Programming/C/beware-the-jabberwock/assets/son/down.png" />
    <path
       style="fill:none;stroke:#000000;stroke-width:1px;stroke-linecap:butt;stroke-linejoin:miter;stroke-opacity:1"
       d="m 380.76438,424.2367 c -0.0211,0.0842 -0.0421,0.16836 -0.0631,0.25254 -0.021,0.0211 -0.0498,0.0365 -0.0631,0.0631 -0.0115,0.023 0,0.27929 0,0.31567 0,0.23149 0,0.46298 0,0.69448 0,0.35776 0,0.71552 0,1.07329 0,0.16835 0,0.33671 0,0.50507 0,0.0421 -0.0102,0.0854 0,0.12627 0.0114,0.0457 0.0482,0.0816 0.0631,0.12627 0.0119,0.0356 0,0.14792 0,0.1894 0,0.12627 0,0.25254 0,0.37881 0,0.0631 -0.0153,0.12815 0,0.1894 0.0114,0.0457 0.0517,0.0806 0.0631,0.12627 0.0215,0.086 -0.0255,0.30243 0,0.37881 0.009,0.0282 0.0498,0.0365 0.0631,0.0631 0.01,0.0192 0,0.20895 0,0.25254 0,0.24663 -0.0188,0.007 0.0631,0.25254 0.007,0.02 0,0.0421 0,0.0631 0,0.0421 0,0.0842 0,0.12626 0,0.0842 0,0.16836 0,0.25254 0,0.0211 -0.009,0.0443 0,0.0631 0.0133,0.0266 0.0498,0.0365 0.0631,0.0631 0.009,0.0188 0,0.0421 0,0.0631 0,0.021 0,0.0421 0,0.0631 0,0.31567 0,0.63135 0,0.94702 0,0.14731 0,0.29463 0,0.44194 0,0.0421 -0.0133,0.0863 0,0.12627 0.009,0.0282 0.0537,0.0349 0.0631,0.0631 0.0133,0.0399 0,0.0842 0,0.12627 0,0.12627 0,0.25254 0,0.37881 0,0.1894 0,0.37881 0,0.56821 0,0.0631 0.0104,0.12713 0,0.18941 -0.0109,0.0656 -0.0501,0.12414 -0.0631,0.1894 -0.008,0.0413 0.008,0.085 0,0.12627 -0.0131,0.0653 -0.0501,0.12414 -0.0631,0.1894 -0.0165,0.0825 0,0.16836 0,0.25254 0,0.021 0.007,0.0432 0,0.0631 -0.0149,0.0447 -0.0517,0.0806 -0.0631,0.12627 -0.0102,0.0408 0,0.0842 0,0.12627 0,0.10523 0,0.21045 0,0.31567 0,0.0211 0.007,0.0432 0,0.0631 -0.0149,0.0446 -0.0517,0.0806 -0.0631,0.12627 -0.008,0.0308 0.0167,0.21915 0,0.25254 -0.0133,0.0266 -0.0537,0.0349 -0.0631,0.0631 -0.0133,0.0399 0,0.0842 0,0.12627 0,0.0677 0.0139,0.40021 0,0.44194 -0.0149,0.0446 -0.0482,0.0816 -0.0631,0.12627 -0.0132,0.0397 0,0.25877 0,0.31567 0,0.0631 0.0153,0.12816 0,0.18941 -0.0114,0.0457 -0.0517,0.0806 -0.0631,0.12627 -0.0102,0.0408 0,0.0842 0,0.12627 0,0.0631 0,0.12626 0,0.1894 0,0.23149 0,0.46299 0,0.69448 0,0.73657 0,1.47314 0,2.20971 0,0.10522 0,0.21045 0,0.31567 0,0.0211 -0.0149,0.0482 0,0.0631 0.0149,0.0149 0.0483,-0.0149 0.0631,0 0.0173,0.0173 -0.0171,0.21829 0,0.25254 0.0133,0.0266 0.0537,0.0349 0.0631,0.0631 0.0133,0.0399 0,0.0842 0,0.12627 0,0.021 -0.009,0.0443 0,0.0631 0.0133,0.0266 0.0498,0.0365 0.0631,0.0631 0.009,0.0188 -0.009,0.0443 0,0.0631 0.0133,0.0266 0.0537,0.0349 0.0631,0.0631 0.01,0.0289 -0.014,0.22445 0,0.25254 0.0133,0.0266 0.0498,0.0365 0.0631,0.0631 0.006,0.0124 0,0.23839 0,0.0631"
       id="path3026"
       inkscape:connector-curvature="0" />
    <path
       style="fill:none;stroke:#000000;stroke-width:1px;stroke-linecap:butt;stroke-linejoin:miter;stroke-opacity:1"
       d="m 381.26945,440.90422 c 0.0683,0.39402 0.19995,0.7787 0.37881,1.13642 0.0421,0.0842 0.0741,0.17423 0.12627,0.25254 0.0165,0.0248 0.0498,0.0365 0.0631,0.0631 0.009,0.0188 -0.009,0.0443 0,0.0631 0.0133,0.0266 0.0498,0.0365 0.0631,0.0631 0.0199,0.0398 -0.0199,0.27585 0,0.31568 0.0133,0.0266 0.0537,0.0349 0.0631,0.0631 0.0133,0.0399 0,0.0842 0,0.12627 0,0.0631 0,0.12627 0,0.1894 0,0.18941 0,0.37881 0,0.56821 0,0.0842 -0.0104,0.16901 0,0.25254 0.0108,0.0861 0.0509,0.16664 0.0631,0.25254 0.009,0.0625 0,0.12627 0,0.1894 0,0.0842 0,0.16836 0,0.25254 0,0.0631 -0.0104,0.12713 0,0.18941 0.0109,0.0656 0.0522,0.12376 0.0631,0.1894 0.0104,0.0623 0,0.12627 0,0.1894 0,0.14732 0,0.29463 0,0.44194 0,0.0421 -0.0133,0.0863 0,0.12627 0.009,0.0282 0.0498,0.0365 0.0631,0.0631 0.008,0.0163 0,0.33406 0,0.37881 0,0.14731 0,0.29462 0,0.44194 0,0.0421 0,0.0842 0,0.12627 0,0.0421 -0.0156,0.0872 0,0.12627 0.0282,0.0704 0.0923,0.12153 0.12627,0.1894 0.01,0.0192 0,0.20894 0,0.25254 0,0.16836 0,0.33671 0,0.50507 0,0.12627 0,0.25254 0,0.37881 0,0.0421 -0.0102,0.0854 0,0.12627 0.0114,0.0456 0.0517,0.0806 0.0631,0.12627 0.0274,0.10962 -0.0274,0.26919 0,0.37881 0.0114,0.0457 0.0517,0.0806 0.0631,0.12626 0.0274,0.10962 -0.0274,0.2692 0,0.37881 0.0114,0.0456 0.0517,0.0806 0.0631,0.12627 0.0102,0.0408 -0.008,0.085 0,0.12627 0.013,0.0653 0.0501,0.12415 0.0631,0.1894 0.008,0.0413 -0.0102,0.0854 0,0.12627 0.0228,0.0913 0.10781,0.16025 0.12627,0.25254 0.0206,0.10318 -0.0255,0.21359 0,0.31567 0.0114,0.0457 0.0517,0.0806 0.0631,0.12627 0.0204,0.0817 -0.0204,0.17087 0,0.25254 0.0114,0.0457 0.0539,0.0801 0.0631,0.12627 0.0206,0.10318 0,0.21045 0,0.31567 0,0.21045 0,0.4209 0,0.63135 0,0.0631 0,0.12627 0,0.1894 0,0.0421 -0.0102,0.0854 0,0.12627 0.0114,0.0457 0.0517,0.0806 0.0631,0.12627 0.0694,0.2774 -0.0693,-0.0249 0,0.25254 0.0114,0.0457 0.0517,0.0806 0.0631,0.12627 0.0274,0.10961 -0.0274,0.26919 0,0.3788 0.0114,0.0457 0.0482,0.0816 0.0631,0.12627 0.007,0.02 0,0.0421 0,0.0631 0,0.0516 -0.0107,0.40994 0,0.44194 0.009,0.0282 0.0537,0.0349 0.0631,0.0631 0.0133,0.0399 0,0.0842 0,0.12627 0,0.0677 -0.0139,0.40021 0,0.44194 0.0149,0.0446 0.0517,0.0806 0.0631,0.12627 0.0124,0.0497 0,0.31316 0,0.37881 0,0.0211 -0.007,0.0432 0,0.0631 0.0149,0.0446 0.0517,0.0806 0.0631,0.12626 0.0215,0.086 -0.0255,0.30243 0,0.37881 0.009,0.0282 0.0498,0.0365 0.0631,0.0631 0.009,0.0188 0,0.0421 0,0.0631 0,0.0211 0,0.0421 0,0.0631 0,0.0536 -0.0105,0.33692 0,0.3788 0.0114,0.0457 0.0483,0.0816 0.0631,0.12627 0.007,0.02 0,0.0421 0,0.0631 0,0.0421 -0.0133,0.0863 0,0.12627 0.009,0.0282 0.0537,0.0349 0.0631,0.0631 0.01,0.0289 0,0.28043 0,0.31567 0,0.0211 -0.007,0.0432 0,0.0631 0.0149,0.0446 0.0482,0.0816 0.0631,0.12627 0.007,0.02 -0.007,0.0432 0,0.0631 0.0149,0.0446 0.0517,0.0806 0.0631,0.12627 0.0208,0.083 -0.0261,0.23726 0,0.31567 0.009,0.0282 0.0537,0.0349 0.0631,0.0631 0.0266,0.0799 -0.0266,0.17268 0,0.25254 0.009,0.0282 0.0537,0.0349 0.0631,0.0631 0.0224,0.0671 -0.0224,0.18545 0,0.25254 0.0149,0.0446 0.0517,0.0806 0.0631,0.12627 0.0102,0.0408 0,0.0842 0,0.12627 0,0.0842 0,0.16835 0,0.25253 0,0.0631 -0.0104,0.12713 0,0.18941 0.0109,0.0656 0.0522,0.12376 0.0631,0.1894 0.0104,0.0623 -0.009,0.1269 0,0.1894 0.0123,0.0859 0.0545,0.1662 0.0631,0.25254 0.0126,0.12565 0,0.25254 0,0.37881 0,0.10522 0,0.21045 0,0.31567 0,0.0421 -0.0102,0.0854 0,0.12627 0.0114,0.0457 0.0483,0.0816 0.0631,0.12627 0.007,0.02 0,0.0421 0,0.0631 0,0.0731 -0.0141,0.2593 0,0.31567 0.0114,0.0456 0.0539,0.0801 0.0631,0.12627 0.008,0.0396 -0.0158,0.33142 0,0.3788 0.009,0.0282 0.0498,0.0365 0.0631,0.0631 0.01,0.0192 0,0.16097 0,0.1894 0,0.14732 0,0.29463 0,0.44194 0,0.0211 0,0.0421 0,0.0631 0,0.021 -0.009,0.0443 0,0.0631 0.0133,0.0266 0.0498,0.0365 0.0631,0.0631 0.0198,0.0397 -0.0198,0.21285 0,0.25254 0.0133,0.0266 0.0498,0.0365 0.0631,0.0631 0.0198,0.0397 -0.0198,0.21286 0,0.25254 0.0133,0.0266 0.0498,0.0365 0.0631,0.0631 0.008,0.0163 0,0.33406 0,0.37881 0,0.0211 -0.009,0.0443 0,0.0631 0.0133,0.0266 0.0498,0.0365 0.0631,0.0631 0.009,0.0188 0,0.0421 0,0.0631 0,0.0421 -0.0102,0.0854 0,0.12627 0.0114,0.0457 0.0483,0.0816 0.0631,0.12627 0.0169,0.0508 -0.0202,0.2122 0,0.25254 0.078,0.15603 0.0631,-0.0218 0.0631,0.12627"
       id="path3028"
       inkscape:connector-curvature="0" />
    <path
       style="fill:none;stroke:#000000;stroke-width:1px;stroke-linecap:butt;stroke-linejoin:miter;stroke-opacity:1"
       d="m 380.89064,441.28303 c -0.0421,0.10522 -0.0842,0.21045 -0.12626,0.31567 -0.0211,0.021 -0.0498,0.0365 -0.0631,0.0631 -0.009,0.0188 0.007,0.0432 0,0.0631 -0.0149,0.0446 -0.0482,0.0816 -0.0631,0.12627 -0.007,0.02 0.009,0.0443 0,0.0631 -0.0133,0.0266 -0.0537,0.0349 -0.0631,0.0631 -0.02,0.0599 0.02,0.12951 0,0.1894 -0.17885,0.3577 0.0235,-0.0941 -0.0631,0.25254 -0.0228,0.0913 -0.10781,0.16025 -0.12627,0.25254 -0.0124,0.0619 0.0104,0.12713 0,0.1894 -0.0109,0.0656 -0.0421,0.12627 -0.0631,0.1894 -0.021,0.0631 -0.0369,0.12824 -0.0631,0.18941 -0.0371,0.0865 -0.10943,0.15994 -0.12627,0.25254 -0.0264,0.14493 0.0195,0.29592 0,0.44194 -0.0675,0.50611 -0.14124,0.43868 -0.25254,0.88388 -0.031,0.12419 -0.0294,0.25531 -0.0631,0.37881 -0.0298,0.10933 -0.0904,0.20816 -0.12627,0.31567 -0.0274,0.0823 -0.0327,0.17129 -0.0631,0.25254 -0.0421,0.0842 -0.0842,0.16836 -0.12627,0.25254 0,0.021 0.007,0.0432 0,0.0631 -0.0298,0.0893 -0.10344,0.16123 -0.12626,0.25254 -0.0153,0.0612 0.02,0.12951 0,0.1894 -0.0149,0.0446 -0.0483,0.0816 -0.0631,0.12627 -0.007,0.02 0,0.0421 0,0.0631 -0.021,0.0421 -0.0482,0.0816 -0.0631,0.12627 -0.007,0.02 0.009,0.0443 0,0.0631 -0.0133,0.0266 -0.0537,0.0349 -0.0631,0.0631 -0.0133,0.0399 0.0133,0.0863 0,0.12626 -0.009,0.0282 -0.0498,0.0365 -0.0631,0.0631 -0.009,0.0188 0.009,0.0443 0,0.0631 -0.0133,0.0266 -0.0537,0.0349 -0.0631,0.0631 -0.0133,0.0399 0.0133,0.0863 0,0.12627 -0.0188,0.0565 -0.10744,0.0698 -0.12627,0.12627 -0.0133,0.0399 0.0102,0.0854 0,0.12627 -0.0762,0.30487 -0.03,-0.003 -0.12627,0.1894 -0.009,0.0188 0.009,0.0443 0,0.0631 -0.0133,0.0266 -0.0498,0.0365 -0.0631,0.0631 -0.0188,0.0376 0.0188,0.0886 0,0.12627 -0.0133,0.0266 -0.0498,0.0365 -0.0631,0.0631 -0.009,0.0188 0.009,0.0443 0,0.0631 -0.0266,0.0532 -0.0996,0.073 -0.12627,0.12627 -0.009,0.0188 0.009,0.0443 0,0.0631 -0.0133,0.0266 -0.0466,0.0384 -0.0631,0.0631 -0.0522,0.0783 -0.0741,0.17423 -0.12627,0.25254 -0.0165,0.0248 -0.0466,0.0384 -0.0631,0.0631 -0.1391,0.0318 -0.0334,0.12988 -0.0631,0.1894 -0.0133,0.0266 -0.0466,0.0384 -0.0631,0.0631 -0.22888,0.45777 0.0666,-0.0998 -0.12627,0.18941 -0.0261,0.0392 -0.0482,0.0816 -0.0631,0.12627 -0.007,0.02 0.0117,0.0456 0,0.0631 -0.033,0.0495 -0.0933,0.0767 -0.12627,0.12627 -0.0117,0.0175 0,0.0421 0,0.0631 -0.0211,0.0421 -0.0349,0.0886 -0.0631,0.12626 -0.0357,0.0476 -0.0933,0.0768 -0.12627,0.12627 -0.0117,0.0175 0.009,0.0443 0,0.0631 -0.0133,0.0266 -0.0498,0.0365 -0.0631,0.0631 -0.009,0.0188 0.009,0.0443 0,0.0631 -0.0266,0.0532 -0.0996,0.073 -0.12627,0.12627 -0.009,0.0188 0.0149,0.0482 0,0.0631 -0.0149,0.0149 -0.0537,-0.0188 -0.0631,0 -0.0188,0.0376 0.0133,0.0863 0,0.12627 -0.0114,0.0342 -0.16175,0.14793 -0.1894,0.1894 -0.0261,0.0392 -0.037,0.0871 -0.0631,0.12627 -0.0619,0.0929 -0.19061,0.15964 -0.25254,0.25254 -0.0261,0.0392 -0.037,0.0871 -0.0631,0.12627 -0.0383,0.0575 -0.16142,0.13345 -0.1894,0.1894 -0.009,0.0188 0.009,0.0443 0,0.0631 -0.0133,0.0266 -0.0421,0.0421 -0.0631,0.0631 -0.0211,0.0211 -0.0498,0.0365 -0.0631,0.0631 -0.009,0.0188 0.009,0.0443 0,0.0631 -0.0169,0.0337 -0.15616,0.15617 -0.1894,0.18941 -0.0493,0.0493 -0.15309,0.13492 -0.18941,0.1894 -0.0261,0.0392 -0.037,0.0871 -0.0631,0.12627 0.0377,0.0936 -0.11522,0.0521 -0.12627,0.0631 -0.0149,0.0149 0.009,0.0443 0,0.0631 -0.0133,0.0266 -0.0498,0.0365 -0.0631,0.0631 -0.009,0.0188 0.009,0.0443 0,0.0631 -0.0266,0.0532 -0.0933,0.0767 -0.12627,0.12627 -0.0261,0.0392 -0.0299,0.093 -0.0631,0.12626 -0.13063,0.13063 0.005,-0.19961 -0.12627,0.0631 -0.009,0.0188 0.009,0.0443 0,0.0631 -0.0266,0.0532 -0.0996,0.073 -0.12627,0.12627 -0.009,0.0188 0.009,0.0443 0,0.0631 -0.0133,0.0266 -0.0498,0.0365 -0.0631,0.0631 -0.009,0.0188 0.009,0.0443 0,0.0631 -0.0133,0.0266 -0.0498,0.0365 -0.0631,0.0631 -0.009,0.0188 0.0149,0.0482 0,0.0631 -0.0149,0.0149 -0.0483,-0.0149 -0.0631,0 -0.0298,0.0298 0.0188,0.0886 0,0.12626 -0.0266,0.0532 -0.0996,0.073 -0.12627,0.12627 -0.009,0.0188 0.009,0.0443 0,0.0631 -0.0133,0.0266 -0.0498,0.0365 -0.0631,0.0631 -0.009,0.0188 0.009,0.0443 0,0.0631 -0.0133,0.0266 -0.0498,0.0365 -0.0631,0.0631 -0.009,0.0188 0.009,0.0443 0,0.0631 -0.0133,0.0266 -0.0466,0.0384 -0.0631,0.0631 -0.0261,0.0392 -0.0421,0.0842 -0.0631,0.12627 -0.021,0.0421 -0.0517,0.0806 -0.0631,0.12627 -0.0102,0.0408 0.0133,0.0863 0,0.12627 -0.0188,0.0565 -0.0996,0.073 -0.12627,0.12627 -0.0188,0.0376 0.0188,0.0886 0,0.12627 -0.0133,0.0266 -0.0498,0.0365 -0.0631,0.0631 -0.009,0.0188 0.009,0.0443 0,0.0631 -0.0133,0.0266 -0.0498,0.0365 -0.0631,0.0631 -0.009,0.0188 0,0.0421 0,0.0631 0,0.0421 0,0.0842 0,0.12627 0,0.0421 0,0.0842 0,0.12627 0,0.0421 -0.0102,0.0854 0,0.12627 0.0228,0.0913 0.10344,0.16123 0.12627,0.25254 0.0102,0.0408 -0.0102,0.0854 0,0.12627 0.0114,0.0457 0.0517,0.0806 0.0631,0.12627 0.0102,0.0408 -0.0133,0.0863 0,0.12627 0.009,0.0282 0.0537,0.0349 0.0631,0.0631 0.0133,0.0399 -0.0133,0.0863 0,0.12627 0.009,0.0282 0.0537,0.0349 0.0631,0.0631 0.0133,0.0399 0,0.0842 0,0.12627 0,0.021 -0.009,0.0443 0,0.0631 0.0133,0.0266 0.0498,0.0365 0.0631,0.0631 0.009,0.0188 -0.007,0.0432 0,0.0631 0.0149,0.0446 0.0421,0.0842 0.0631,0.12627 0.0211,0.0842 0.0393,0.1691 0.0631,0.25253 0.0494,0.17289 0.14209,0.33161 0.1894,0.50508 0.0337,0.1235 0.0227,0.25737 0.0631,0.37881 0.14971,0.44914 0.0801,-0.0292 0.25253,0.31567 0.0188,0.0376 -0.0188,0.0886 0,0.12627 0.0266,0.0532 0.0933,0.0767 0.12627,0.12627 0.0117,0.0175 -0.007,0.0432 0,0.0631 0.0149,0.0446 0.0483,0.0816 0.0631,0.12627 0.007,0.02 -0.009,0.0443 0,0.0631 0.0133,0.0266 0.0498,0.0365 0.0631,0.0631 0.0171,0.0343 -0.0173,0.23526 0,0.25254 0.0149,0.0149 0.0537,-0.0188 0.0631,0 0.0188,0.0376 0,0.0842 0,0.12627 0,0.12627 0,0.25254 0,0.37881 0,0.0421 -0.0102,0.0854 0,0.12626 0.0114,0.0457 0.0539,0.0801 0.0631,0.12627 0.0139,0.0694 0,0.40805 0,0.50508 0,0.31567 0,0.63135 0,0.94702 0,0.0337 -0.009,0.2976 0,0.31567 0.0133,0.0266 0.0498,0.0365 0.0631,0.0631 0.01,0.0192 0,0.16097 0,0.1894"
       id="path3057"
       inkscape:connector-curvature="0" />
  </g>
</svg>
