<?xml version="1.0" encoding="UTF-8" standalone="no"?>
<!-- Created with Inkscape (http://www.inkscape.org/) -->

<svg
   xmlns:dc="http://purl.org/dc/elements/1.1/"
   xmlns:cc="http://creativecommons.org/ns#"
   xmlns:rdf="http://www.w3.org/1999/02/22-rdf-syntax-ns#"
   xmlns:svg="http://www.w3.org/2000/svg"
   xmlns="http://www.w3.org/2000/svg"
   xmlns:sodipodi="http://sodipodi.sourceforge.net/DTD/sodipodi-0.dtd"
   xmlns:inkscape="http://www.inkscape.org/namespaces/inkscape"
   width="744.09448819"
   height="1052.3622047"
   id="svg2"
   version="1.1"
   inkscape:version="0.48.5 r10040"
   sodipodi:docname="up_2.svg"
   inkscape:export-filename="/home/tom/Programming/C/beware-the-jabberwock/assets/son/up_2.png"
   inkscape:export-xdpi="90"
   inkscape:export-ydpi="90">
  <defs
     id="defs4" />
  <sodipodi:namedview
     id="base"
     pagecolor="#ffffff"
     bordercolor="#666666"
     borderopacity="1.0"
     inkscape:pageopacity="0.0"
     inkscape:pageshadow="2"
     inkscape:zoom="63.356768"
     inkscape:cx="383.89663"
     inkscape:cy="634.36275"
     inkscape:document-units="px"
     inkscape:current-layer="layer1"
     showgrid="false"
     inkscape:window-width="1920"
     inkscape:window-height="1014"
     inkscape:window-x="0"
     inkscape:window-y="27"
     inkscape:window-maximized="1" />
  <metadata
     id="metadata7">
    <rdf:RDF>
      <cc:Work
         rdf:about="">
        <dc:format>image/svg+xml</dc:format>
        <dc:type
           rdf:resource="http://purl.org/dc/dcmitype/StillImage" />
        <dc:title></dc:title>
      </cc:Work>
    </rdf:RDF>
  </metadata>
  <g
     inkscape:label="Layer 1"
     inkscape:groupmode="layer"
     id="layer1">
    <path
       sodipodi:type="arc"
       style="fill:#ffeeaa"
       id="path3059"
       sodipodi:cx="380.95377"
       sodipodi:cy="417.2919"
       sodipodi:rx="6.4397225"
       sodipodi:ry="6.3765879"
       d="m 387.39349,417.2919 a 6.4397225,6.3765879 0 1 1 -12.87945,0 6.4397225,6.3765879 0 1 1 12.87945,0 z"
       inkscape:export-filename="/home/tom/Programming/C/beware-the-jabberwock/assets/son/down.png"
       inkscape:export-xdpi="190.67792"
       inkscape:export-ydpi="190.67792" />
    <path
       style="fill:none;stroke:#000000;stroke-width:1px;stroke-linecap:butt;stroke-linejoin:miter;stroke-opacity:1"
       d="m 374.45092,417.2919 c -0.2661,-0.0506 -0.0151,-0.21969 -0.0631,-0.31567 -0.0133,-0.0266 -0.0498,-0.0365 -0.0631,-0.0631 -0.008,-0.0166 0,-0.21953 0,-0.25254 0,-0.0284 -0.01,-0.17019 0,-0.18941 0.0133,-0.0266 0.0498,-0.0365 0.0631,-0.0631 0.009,-0.0188 -0.009,-0.0443 0,-0.0631 0.0133,-0.0266 0.0498,-0.0365 0.0631,-0.0631 0.009,-0.0188 -0.009,-0.0443 0,-0.0631 0.0133,-0.0266 0.0421,-0.0421 0.0631,-0.0631 0.0766,-0.0766 0.16124,-0.13988 0.1894,-0.25254 0.008,-0.0308 -0.0167,-0.21915 0,-0.25253 0.0133,-0.0266 0.0498,-0.0365 0.0631,-0.0631 0.008,-0.0166 0,-0.21952 0,-0.25254 0,-0.16836 0,-0.33672 0,-0.50507 0,-0.0153 -0.002,-0.18738 0,-0.18941 0.0149,-0.0149 0.0482,0.0149 0.0631,0 0.0298,-0.0298 -0.0188,-0.0886 0,-0.12627 0.0133,-0.0266 0.0498,-0.0365 0.0631,-0.0631 0.009,-0.0188 -0.0149,-0.0482 0,-0.0631 0.0149,-0.0149 0.0483,0.0149 0.0631,0 0.0149,-0.0149 -0.0149,-0.0483 0,-0.0631 0.0149,-0.0149 0.0482,0.0149 0.0631,0 0.002,-0.002 0,-0.17409 0,-0.1894 0,-0.16836 -0.021,0.021 0.0631,-0.0631 0.0129,-0.0129 -0.0125,-0.16437 0,-0.1894 0.0133,-0.0266 0.0498,-0.0365 0.0631,-0.0631 0.009,-0.0188 -0.009,-0.0443 0,-0.0631 0.0266,-0.0532 0.0996,-0.073 0.12627,-0.12627 0.009,-0.0188 -0.0149,-0.0483 0,-0.0631 0.0149,-0.0149 0.0483,0.0149 0.0631,0 0.0149,-0.0149 -0.009,-0.0443 0,-0.0631 0.0133,-0.0266 0.0498,-0.0365 0.0631,-0.0631 0.009,-0.0188 -0.009,-0.0443 0,-0.0631 0.13138,-0.26275 -0.004,0.0675 0.12627,-0.0631 0.0149,-0.0149 -0.009,-0.0443 0,-0.0631 0.13137,-0.26275 -0.004,0.0675 0.12627,-0.0631 0.0149,-0.0149 -0.0149,-0.0483 0,-0.0631 0.0149,-0.0149 0.0443,0.009 0.0631,0 0.0266,-0.0133 0.0365,-0.0498 0.0631,-0.0631 0.0188,-0.009 0.0421,0 0.0631,0 0.0211,-0.0211 0.0365,-0.0498 0.0631,-0.0631 0.0188,-0.009 0.0443,0.009 0.0631,0 0.0532,-0.0266 0.073,-0.0996 0.12627,-0.12626 0.0376,-0.0188 0.0965,0.0298 0.12627,0 0.0149,-0.0149 -0.009,-0.0443 0,-0.0631 0.0311,-0.0621 0.22147,-0.19041 0.25254,-0.25254 0.009,-0.0188 -0.0149,-0.0482 0,-0.0631 0.0298,-0.0298 0.0965,0.0298 0.12627,0 0.0149,-0.0149 -0.0149,-0.0483 0,-0.0631 0.0298,-0.0298 0.0965,0.0298 0.12627,0 0.0149,-0.0149 -0.009,-0.0443 0,-0.0631 0.0133,-0.0266 0.0421,-0.0421 0.0631,-0.0631 0.0211,-0.021 0.0365,-0.0498 0.0631,-0.0631 0.0188,-0.009 0.0443,0.009 0.0631,0 0.0266,-0.0133 0.0365,-0.0498 0.0631,-0.0631 0.0188,-0.009 0.0443,0.009 0.0631,0 0.20939,-0.2094 -0.0595,0.0298 0.12627,-0.0631 0.0266,-0.0133 0.0365,-0.0498 0.0631,-0.0631 0.0188,-0.009 0.0483,0.0149 0.0631,0 0.0149,-0.0149 -0.0149,-0.0483 0,-0.0631 0.0298,-0.0298 0.0965,0.0298 0.12627,0 0.0149,-0.0149 -0.0149,-0.0482 0,-0.0631 0.0149,-0.0149 0.0443,0.009 0.0631,0 0.0266,-0.0133 0.0365,-0.0498 0.0631,-0.0631 0.0188,-0.009 0.0483,0.0149 0.0631,0 0.0149,-0.0149 -0.0149,-0.0482 0,-0.0631 0.0149,-0.0149 0.0443,0.009 0.0631,0 0.0266,-0.0133 0.0365,-0.0498 0.0631,-0.0631 0.0188,-0.009 0.0482,0.0149 0.0631,0 0.0149,-0.0149 -0.0149,-0.0482 0,-0.0631 0.0298,-0.0298 0.0886,0.0188 0.12627,0 0.0266,-0.0133 0.0365,-0.0498 0.0631,-0.0631 0.0188,-0.009 0.0443,0.009 0.0631,0 0.0266,-0.0133 0.0365,-0.0498 0.0631,-0.0631 0.0188,-0.009 0.0482,0.0149 0.0631,0 0.0149,-0.0149 -0.0149,-0.0482 0,-0.0631 0.0149,-0.0149 0.0443,0.009 0.0631,0 0.0266,-0.0133 0.0365,-0.0498 0.0631,-0.0631 0.0343,-0.0171 0.23526,0.0173 0.25254,0 0.0149,-0.0149 -0.0149,-0.0482 0,-0.0631 0.0298,-0.0298 0.0965,0.0298 0.12627,0 0.0149,-0.0149 -0.0149,-0.0483 0,-0.0631 0.0298,-0.0298 0.0886,0.0188 0.12627,0 0.0266,-0.0133 0.0365,-0.0498 0.0631,-0.0631 0.0397,-0.0198 0.21286,0.0198 0.25254,0 0.0266,-0.0133 0.0365,-0.0498 0.0631,-0.0631 0.0188,-0.009 0.0443,0.009 0.0631,0 0.0266,-0.0133 0.0365,-0.0498 0.0631,-0.0631 0.0376,-0.0188 0.0886,0.0188 0.12627,0 0.0266,-0.0133 0.0365,-0.0498 0.0631,-0.0631 0.0376,-0.0188 0.0886,0.0188 0.12626,0 0.0266,-0.0133 0.0365,-0.0498 0.0631,-0.0631 0.0188,-0.009 0.0483,0.0149 0.0631,0 0.0149,-0.0149 -0.0149,-0.0482 0,-0.0631 0.0222,-0.0222 0.27207,0.0218 0.31568,0 0.0266,-0.0133 0.0365,-0.0498 0.0631,-0.0631 0.0188,-0.009 0.0421,0 0.0631,0 0.021,0 0.0421,0 0.0631,0 0.12627,0 0.25254,0 0.37881,0 0.12627,0 0.25253,0 0.3788,0 0.0211,0 0.0421,0 0.0631,0 0.021,0 0.0443,-0.009 0.0631,0 0.0266,0.0133 0.0365,0.0498 0.0631,0.0631 0.0188,0.009 0.0421,0 0.0631,0 0.0211,0 0.0421,0 0.0631,0 0.12627,0 0.25253,0 0.3788,0 0.0284,0 0.17019,-0.01 0.18941,0 0.20939,0.2094 -0.0595,-0.0298 0.12627,0.0631 0.0266,0.0133 0.0365,0.0498 0.0631,0.0631 0.0188,0.009 0.0421,0 0.0631,0 0.0447,0 0.36248,-0.008 0.3788,0 0.0266,0.0133 0.0365,0.0498 0.0631,0.0631 0.0376,0.0188 0.0965,-0.0298 0.12627,0 0.0149,0.0149 -0.0149,0.0482 0,0.0631 0.0222,0.0222 0.27206,-0.0218 0.31567,0 0.0266,0.0133 0.0365,0.0498 0.0631,0.0631 0.0403,0.0202 0.20172,-0.0169 0.25254,0 0.0446,0.0149 0.0816,0.0482 0.12627,0.0631 0.02,0.007 0.0432,-0.007 0.0631,0 0.0446,0.0149 0.0816,0.0483 0.12626,0.0631 0.02,0.007 0.0483,-0.0149 0.0631,0 0.0149,0.0149 -0.0149,0.0482 0,0.0631 0.0298,0.0298 0.0886,-0.0188 0.12627,0 0.0266,0.0133 0.0365,0.0498 0.0631,0.0631 0.0188,0.009 0.0483,-0.0149 0.0631,0 0.0149,0.0149 -0.0149,0.0483 0,0.0631 0.0298,0.0298 0.0965,-0.0298 0.12627,0 0.0149,0.0149 -0.0149,0.0483 0,0.0631 0.0149,0.0149 0.0443,-0.009 0.0631,0 0.0266,0.0133 0.0365,0.0498 0.0631,0.0631 0.0188,0.009 0.0443,-0.009 0.0631,0 0.28894,0.14447 -0.26791,-0.0262 0.1894,0.12627 0.02,0.007 0.0483,-0.0149 0.0631,0 0.0149,0.0149 -0.0149,0.0482 0,0.0631 0.0149,0.0149 0.0482,-0.0149 0.0631,0 0.0149,0.0149 -0.0149,0.0483 0,0.0631 0.0149,0.0149 0.0443,-0.009 0.0631,0 0.0758,0.0379 0.11364,0.15152 0.1894,0.1894 0.0188,0.009 0.0482,-0.0149 0.0631,0 0.0149,0.0149 -0.0149,0.0482 0,0.0631 0.0298,0.0298 0.0965,-0.0298 0.12626,0 0.0149,0.0149 -0.009,0.0443 0,0.0631 0.008,0.0168 0.17264,0.18102 0.18941,0.1894 0.0188,0.009 0.0482,-0.0149 0.0631,0 0.0298,0.0298 -0.0298,0.0965 0,0.12627 0.0149,0.0149 0.0483,-0.0149 0.0631,0 0.0149,0.0149 -0.009,0.0443 0,0.0631 0.0379,0.0758 0.15152,0.11364 0.1894,0.1894 0.009,0.0188 -0.009,0.0443 0,0.0631 0.0169,0.0337 0.15617,0.15616 0.1894,0.1894 0.0332,0.0332 0.15569,0.17254 0.18941,0.1894 0.0188,0.009 0.0482,-0.0149 0.0631,0 0.13063,0.13063 -0.19961,-0.005 0.0631,0.12627 0.0188,0.009 0.0482,-0.0149 0.0631,0 0.0298,0.0298 -0.0298,0.0965 0,0.12627 0.0149,0.0149 0.0482,-0.0149 0.0631,0 0.0149,0.0149 -0.009,0.0443 0,0.0631 0.0133,0.0266 0.0498,0.0365 0.0631,0.0631 0.009,0.0188 -0.0149,0.0482 0,0.0631 0.0149,0.0149 0.0483,-0.0149 0.0631,0 0.0149,0.0149 -0.009,0.0443 0,0.0631 0.0133,0.0266 0.0498,0.0365 0.0631,0.0631 0.009,0.0188 -0.009,0.0443 0,0.0631 0.0133,0.0266 0.0498,0.0365 0.0631,0.0631 0.009,0.0188 -0.009,0.0443 0,0.0631 0.0133,0.0266 0.0498,0.0365 0.0631,0.0631 0.009,0.0188 -0.009,0.0443 0,0.0631 0.0133,0.0266 0.0498,0.0365 0.0631,0.0631 0.0188,0.0376 -0.0298,0.0965 0,0.12627 0.0149,0.0149 0.0483,-0.0149 0.0631,0 0.0149,0.0149 -0.009,0.0443 0,0.0631 0.0133,0.0266 0.0498,0.0365 0.0631,0.0631 0.0188,0.0376 -0.0298,0.0965 0,0.12627 0.0149,0.0149 0.0483,-0.0149 0.0631,0 0.0149,0.0149 -0.009,0.0443 0,0.0631 0.0133,0.0266 0.0537,0.0349 0.0631,0.0631 0.0133,0.0399 -0.0188,0.0886 0,0.12627 0.009,0.0188 0.0482,-0.0149 0.0631,0 0.0316,0.0316 -0.0316,0.15783 0,0.1894 0.0149,0.0149 0.0482,-0.0149 0.0631,0 0.0129,0.0129 -0.0125,0.16437 0,0.1894 0.0133,0.0266 0.0498,0.0365 0.0631,0.0631 0.0188,0.0376 -0.0298,0.0965 0,0.12627 0.0149,0.0149 0.0483,-0.0149 0.0631,0 0.0129,0.0129 -0.0125,0.16437 0,0.1894 0.0266,0.0532 0.0996,0.073 0.12627,0.12627 0.0198,0.0397 -0.0198,0.21286 0,0.25254 0.0133,0.0266 0.0498,0.0365 0.0631,0.0631 0.009,0.0188 0,0.0421 0,0.0631 0,0.021 0,0.0421 0,0.0631 0,0.10523 0,0.21045 0,0.31567 0,0.0211 -0.009,0.0443 0,0.0631 0.0133,0.0266 0.0498,0.0365 0.0631,0.0631 0.01,0.0192 0,0.16097 0,0.18941 0,0.12627 0,0.25253 0,0.3788 0,0.29463 0,0.58926 0,0.88389 0,0.12627 0,0.25254 0,0.3788 0,0.0211 0,0.0421 0,0.0631 0,0.021 -0.009,0.0443 0,0.0631 0.0133,0.0266 0.0498,0.0365 0.0631,0.0631 0.008,0.0166 0,0.21952 0,0.25254 0,0.14731 0,0.29462 0,0.44194 0,0.0284 0.01,0.17019 0,0.1894 -0.0133,0.0266 -0.0498,0.0365 -0.0631,0.0631 -0.0125,0.025 0.0129,0.17649 0,0.1894 -0.0149,0.0149 -0.0483,-0.0149 -0.0631,0 -0.0298,0.0298 0.0298,0.0965 0,0.12627 -0.0149,0.0149 -0.0482,-0.0149 -0.0631,0 -0.0298,0.0298 0.0188,0.0886 0,0.12627 -0.0266,0.0532 -0.0996,0.073 -0.12627,0.12627 -0.009,0.0188 0.009,0.0443 0,0.0631 -0.0266,0.0532 -0.0996,0.073 -0.12627,0.12627 -0.009,0.0188 0.0149,0.0482 0,0.0631 -0.0149,0.0149 -0.0482,-0.0149 -0.0631,0 -0.0149,0.0149 0.009,0.0443 0,0.0631 -0.0133,0.0266 -0.0498,0.0365 -0.0631,0.0631 -0.0188,0.0377 0.0298,0.0965 0,0.12627 -0.0149,0.0149 -0.0482,-0.0149 -0.0631,0 -0.0149,0.0149 0.009,0.0443 0,0.0631 -0.0133,0.0266 -0.0498,0.0365 -0.0631,0.0631 -0.009,0.0188 0.0149,0.0483 0,0.0631 -0.0149,0.0149 -0.0482,-0.0149 -0.0631,0 -0.0298,0.0298 0.0298,0.0965 0,0.12627 -0.0149,0.0149 -0.0483,-0.0149 -0.0631,0 -0.0149,0.0149 0.009,0.0443 0,0.0631 -0.0266,0.0532 -0.0996,0.073 -0.12627,0.12627 -0.009,0.0188 0.0149,0.0482 0,0.0631 -0.0149,0.0149 -0.0482,-0.0149 -0.0631,0 -0.0298,0.0298 0.0298,0.0965 0,0.12627 -0.0149,0.0149 -0.0482,-0.0149 -0.0631,0 -0.0149,0.0149 0.0149,0.0483 0,0.0631 -0.0149,0.0149 -0.0482,-0.0149 -0.0631,0 -0.0149,0.0149 0.0149,0.0482 0,0.0631 -0.0149,0.0149 -0.0482,-0.0149 -0.0631,0 -0.0149,0.0149 0.0149,0.0483 0,0.0631 -0.0149,0.0149 -0.0483,-0.0149 -0.0631,0 -0.0149,0.0149 0.009,0.0443 0,0.0631 -0.13137,0.26275 0.004,-0.0675 -0.12627,0.0631 -0.0149,0.0149 0.0149,0.0482 0,0.0631 -0.0149,0.0149 -0.0482,-0.0149 -0.0631,0 -0.0149,0.0149 0.0149,0.0482 0,0.0631 -0.0149,0.0149 -0.0483,-0.0149 -0.0631,0 -0.0149,0.0149 0.0149,0.0483 0,0.0631 -0.0149,0.0149 -0.0482,-0.0149 -0.0631,0 -0.0149,0.0149 0.0149,0.0482 0,0.0631 -0.0149,0.0149 -0.0482,-0.0149 -0.0631,0 -0.0149,0.0149 0.0149,0.0483 0,0.0631 -0.0149,0.0149 -0.0482,-0.0149 -0.0631,0 -0.0149,0.0149 0.0149,0.0482 0,0.0631 -0.0149,0.0149 -0.0443,-0.009 -0.0631,0 -0.0532,0.0266 -0.073,0.0996 -0.12627,0.12627 -0.0188,0.009 -0.0483,-0.0149 -0.0631,0 -0.0149,0.0149 0.009,0.0443 0,0.0631 -0.0133,0.0266 -0.0498,0.0365 -0.0631,0.0631 -0.009,0.0188 0.0188,0.0537 0,0.0631 -0.0842,0.0421 -0.2315,-0.0421 -0.31568,0 -0.0188,0.009 0.0149,0.0482 0,0.0631 -0.0149,0.0149 -0.0443,-0.009 -0.0631,0 -0.0266,0.0133 -0.0365,0.0498 -0.0631,0.0631 -0.0376,0.0188 -0.0965,-0.0298 -0.12627,0 -0.0149,0.0149 0.0149,0.0483 0,0.0631 -0.0298,0.0298 -0.0965,-0.0298 -0.12627,0 -0.0149,0.0149 0.0149,0.0482 0,0.0631 -0.0149,0.0149 -0.0443,-0.009 -0.0631,0 -0.0266,0.0133 -0.0365,0.0498 -0.0631,0.0631 -0.0188,0.009 -0.0483,-0.0149 -0.0631,0 -0.0149,0.0149 0.0149,0.0482 0,0.0631 -0.0149,0.0149 -0.0482,-0.0149 -0.0631,0 -0.0149,0.0149 0.0149,0.0483 0,0.0631 -0.0149,0.0149 -0.0482,-0.0149 -0.0631,0 -0.0149,0.0149 0.0149,0.0482 0,0.0631 -0.0298,0.0298 -0.0965,-0.0298 -0.12626,0 -0.0149,0.0149 0.0149,0.0483 0,0.0631 -0.0298,0.0298 -0.0965,-0.0298 -0.12627,0 -0.0149,0.0149 0.0149,0.0482 0,0.0631 -0.0298,0.0298 -0.0886,-0.0188 -0.12627,0 -0.0266,0.0133 -0.0421,0.0421 -0.0631,0.0631 -0.0421,0 -0.0863,-0.0133 -0.12627,0 -0.0282,0.009 -0.0349,0.0537 -0.0631,0.0631 -2.9e-4,10e-5 -0.18934,-6e-5 -0.1894,0 -0.0149,0.0149 0.0149,0.0482 0,0.0631 -0.0298,0.0298 -0.0965,-0.0298 -0.12627,0 -0.0149,0.0149 0.0149,0.0483 0,0.0631 -0.0298,0.0298 -0.0886,-0.0188 -0.12627,0 -0.0266,0.0133 -0.0365,0.0498 -0.0631,0.0631 -0.0376,0.0188 -0.0886,-0.0188 -0.12627,0 -0.0266,0.0133 -0.0365,0.0498 -0.0631,0.0631 -0.0188,0.009 -0.0421,0 -0.0631,0 -0.10522,0 -0.21044,0 -0.31567,0 -0.021,0 -0.0421,0 -0.0631,0 -0.0211,0 -0.0443,-0.009 -0.0631,0 -0.0266,0.0133 -0.0365,0.0498 -0.0631,0.0631 -0.0436,0.0218 -0.29351,-0.0222 -0.31567,0 -0.0149,0.0149 0.0149,0.0483 0,0.0631 -0.007,0.007 -0.29994,-0.005 -0.31568,0 -0.0282,0.009 -0.0349,0.0537 -0.0631,0.0631 -0.043,0.0143 -0.2822,-0.0167 -0.31567,0 -0.0266,0.0133 -0.0365,0.0498 -0.0631,0.0631 -0.0376,0.0188 -0.0886,-0.0188 -0.12627,0 -0.0266,0.0133 -0.0365,0.0498 -0.0631,0.0631 -0.0166,0.008 -0.21953,0 -0.25254,0 -0.1894,0 -0.37881,0 -0.56821,0 -0.16836,0 -0.33672,0 -0.50508,0 -0.0284,0 -0.17019,0.01 -0.1894,0 -0.0266,-0.0133 -0.0365,-0.0498 -0.0631,-0.0631 -0.0163,-0.008 -0.33405,0 -0.3788,0 -0.0211,0 -0.0443,0.009 -0.0631,0 -0.0266,-0.0133 -0.0365,-0.0498 -0.0631,-0.0631 -0.0188,-0.009 -0.0443,0.009 -0.0631,0 -0.0266,-0.0133 -0.0365,-0.0498 -0.0631,-0.0631 -0.0376,-0.0188 -0.0965,0.0298 -0.12627,0 -0.0149,-0.0149 0.0149,-0.0483 0,-0.0631 -0.0298,-0.0298 -0.0965,0.0298 -0.12627,0 -0.0149,-0.0149 0.0149,-0.0482 0,-0.0631 -0.0298,-0.0298 -0.0965,0.0298 -0.12627,0 -0.0149,-0.0149 0.0149,-0.0483 0,-0.0631 -0.0298,-0.0298 -0.0886,0.0188 -0.12627,0 -0.0266,-0.0133 -0.0365,-0.0498 -0.0631,-0.0631 -0.0188,-0.009 -0.0421,0 -0.0631,0 -0.0421,-0.0211 -0.0871,-0.037 -0.12627,-0.0631 -0.0575,-0.0383 -0.13344,-0.16142 -0.1894,-0.1894 -0.0188,-0.009 -0.0482,0.0149 -0.0631,0 -0.0149,-0.0149 0.0149,-0.0482 0,-0.0631 -0.0149,-0.0149 -0.0443,0.009 -0.0631,0 -0.0266,-0.0133 -0.0365,-0.0498 -0.0631,-0.0631 -0.0188,-0.009 -0.0483,0.0149 -0.0631,0 -0.0149,-0.0149 0.0149,-0.0482 0,-0.0631 -0.0149,-0.0149 -0.0482,0.0149 -0.0631,0 -0.0149,-0.0149 0.0149,-0.0483 0,-0.0631 -0.13063,-0.13062 0.005,0.19962 -0.12627,-0.0631 -0.009,-0.0188 0.0149,-0.0483 0,-0.0631 -0.0149,-0.0149 -0.0482,0.0149 -0.0631,0 -0.0149,-0.0149 0.0149,-0.0482 0,-0.0631 -0.0298,-0.0298 -0.0886,0.0188 -0.12626,0 -0.0266,-0.0133 -0.0365,-0.0498 -0.0631,-0.0631 -0.0188,-0.009 -0.0483,0.0149 -0.0631,0 -0.0333,-0.0333 -0.0299,-0.093 -0.0631,-0.12626 -0.0298,-0.0298 -0.0965,0.0298 -0.12627,0 -0.13062,-0.13063 0.19962,0.005 -0.0631,-0.12627 -0.0188,-0.009 -0.0483,0.0149 -0.0631,0 -0.0149,-0.0149 0.009,-0.0443 0,-0.0631 -0.008,-0.0168 -0.17264,-0.18102 -0.1894,-0.1894 -0.0188,-0.009 -0.0482,0.0149 -0.0631,0 -0.0149,-0.0149 0.009,-0.0443 0,-0.0631 -0.0266,-0.0532 -0.0996,-0.073 -0.12627,-0.12627 -0.009,-0.0188 0.0149,-0.0482 0,-0.0631 -0.0298,-0.0298 -0.0965,0.0298 -0.12627,0 -0.0149,-0.0149 0.0149,-0.0482 0,-0.0631 -0.0149,-0.0149 -0.0483,0.0149 -0.0631,0 -0.0298,-0.0298 0.0188,-0.0886 0,-0.12627 -0.13137,-0.26275 0.004,0.0675 -0.12627,-0.0631 -0.0298,-0.0298 0.0298,-0.0965 0,-0.12627 -0.0149,-0.0149 -0.0482,0.0149 -0.0631,0 -0.0149,-0.0149 0.0149,-0.0482 0,-0.0631 -0.0149,-0.0149 -0.0482,0.0149 -0.0631,0 -0.0333,-0.0333 -0.0299,-0.093 -0.0631,-0.12627 -0.0149,-0.0149 -0.0482,0.0149 -0.0631,0 -0.0333,-0.0333 -0.037,-0.0871 -0.0631,-0.12627 -0.033,-0.0495 -0.0997,-0.073 -0.12627,-0.12627 -0.009,-0.0188 0.0149,-0.0483 0,-0.0631 -0.13063,-0.13063 0.005,0.19961 -0.12627,-0.0631 -0.0188,-0.0376 0.0298,-0.0965 0,-0.12627 -0.13062,-0.13062 0.005,0.19962 -0.12627,-0.0631 -0.0188,-0.0377 0.0298,-0.0965 0,-0.12627 -0.0149,-0.0149 -0.0482,0.0149 -0.0631,0 -0.0316,-0.0316 0.0316,-0.15784 0,-0.1894 -0.0149,-0.0149 -0.0482,0.0149 -0.0631,0 -0.0149,-0.0149 0.009,-0.0443 0,-0.0631 -0.0133,-0.0266 -0.0498,-0.0365 -0.0631,-0.0631 -0.0188,-0.0377 0.0188,-0.0886 0,-0.12627 -0.0133,-0.0266 -0.0498,-0.0365 -0.0631,-0.0631 -0.0188,-0.0376 0.0298,-0.0965 0,-0.12627 -0.0149,-0.0149 -0.0483,0.0149 -0.0631,0 -0.0173,-0.0173 0.0171,-0.21828 0,-0.25253 -0.0133,-0.0266 -0.0498,-0.0365 -0.0631,-0.0631 -0.0188,-0.0376 0.0188,-0.0886 0,-0.12627 -0.0133,-0.0266 -0.0498,-0.0365 -0.0631,-0.0631 -0.0188,-0.0376 0.0188,-0.0886 0,-0.12627 -0.0266,-0.0532 -0.0996,-0.073 -0.12627,-0.12627 -0.009,-0.0188 0.009,-0.0443 0,-0.0631 -0.0133,-0.0266 -0.0498,-0.0365 -0.0631,-0.0631 -0.0188,-0.0376 0.0188,-0.0886 0,-0.12627 -0.0133,-0.0266 -0.0498,-0.0365 -0.0631,-0.0631 -0.0188,-0.0377 0.0298,-0.0965 0,-0.12627 -0.0149,-0.0149 -0.0482,0.0149 -0.0631,0 -0.0149,-0.0149 0.009,-0.0443 0,-0.0631 -0.0133,-0.0266 -0.0498,-0.0365 -0.0631,-0.0631 -0.009,-0.0188 0.009,-0.0443 0,-0.0631 -0.0133,-0.0266 -0.0498,-0.0365 -0.0631,-0.0631 -0.009,-0.0188 0.009,-0.0443 0,-0.0631 -0.0133,-0.0266 -0.0498,-0.0365 -0.0631,-0.0631 -0.009,-0.0188 0.009,-0.0443 0,-0.0631 -0.0133,-0.0266 -0.0498,-0.0365 -0.0631,-0.0631 -0.0188,-0.0376 0.0298,-0.0965 0,-0.12627 -0.0149,-0.0149 -0.0482,0.0149 -0.0631,0 -0.0298,-0.0298 0.0298,-0.0965 0,-0.12627 -0.0149,-0.0149 -0.0483,0.0149 -0.0631,0 -0.0316,-0.0316 0.0316,-0.15783 0,-0.1894 -0.0149,-0.0149 -0.0482,0.0149 -0.0631,0 -0.0149,-0.0149 -0.003,-0.0424 0,-0.0631 0.0176,-0.10585 0.0421,-0.21045 0.0631,-0.31568 z"
       id="path3065"
       inkscape:connector-curvature="0"
       inkscape:export-filename="/home/tom/Programming/C/beware-the-jabberwock/assets/son/down.png"
       inkscape:export-xdpi="190.67792"
       inkscape:export-ydpi="190.67792" />
    <path
       style="fill:none;stroke:#000000;stroke-width:1px;stroke-linecap:butt;stroke-linejoin:miter;stroke-opacity:1"
       d="m 381.42857,428.25504 c 0,0.23809 0,0.47619 0,0.71428 0,0.0893 -0.0147,0.17979 0,0.26786 0.0155,0.0928 0.0689,0.17598 0.0893,0.26786 0.0393,0.17672 0.0454,0.36008 0.0893,0.53571 0.0457,0.18261 0.12322,0.35581 0.17858,0.53572 0.12743,0.41417 0.24548,0.83129 0.35714,1.25 0.20736,0.77761 0.13212,0.60797 0.35714,1.33928 0.0554,0.17991 0.12322,0.35581 0.17857,0.53572 0.14383,0.46743 0.18517,0.71357 0.35715,1.16071 0.0814,0.21155 0.19618,0.40997 0.26785,0.625 0.0776,0.23283 0.10096,0.48146 0.17857,0.71429 0.0717,0.21503 0.17581,0.41787 0.26786,0.625 0.29211,0.65724 0.60954,1.30321 0.89286,1.96428 0.12627,0.29463 0.23809,0.59524 0.35714,0.89286 0.14881,0.29762 0.30988,0.58942 0.44643,0.89286 0.13154,0.29231 0.2256,0.60054 0.35714,0.89285 0.13655,0.30344 0.29145,0.59841 0.44643,0.89286 0.14271,0.27116 0.32976,0.52023 0.44643,0.80357 0.4009,0.97363 0.0157,0.40431 0.26786,1.16072 0.0421,0.12627 0.13648,0.23087 0.17857,0.35714 0.0188,0.0565 -0.0188,0.1221 0,0.17857 0.0133,0.0399 0.0705,0.0516 0.0893,0.0893 0.0133,0.0266 0,0.0595 0,0.0893 0,0.0298 0,0.0595 0,0.0893"
       id="path3165"
       inkscape:connector-curvature="0"
       inkscape:export-filename="/home/tom/Programming/C/beware-the-jabberwock/assets/son/down.png"
       inkscape:export-xdpi="190.67792"
       inkscape:export-ydpi="190.67792" />
    <path
       style="fill:none;stroke:#000000;stroke-width:1px;stroke-linecap:butt;stroke-linejoin:miter;stroke-opacity:1"
       d="m 380.44643,428.5229 c -0.21583,0.13694 -0.33852,0.37795 -0.53571,0.53571 -0.0838,0.067 -0.18407,0.11154 -0.26786,0.17857 -0.12522,0.10018 -0.29661,0.30519 -0.35714,0.44643 -0.0483,0.11279 -0.0556,0.23915 -0.0893,0.35714 -0.2731,0.95584 0.14818,-0.70162 -0.17857,0.71429 -0.0552,0.23914 -0.14813,0.47076 -0.17857,0.71428 -0.0628,0.50205 0.0591,1.01537 0,1.51786 -0.0644,0.54731 -0.27461,0.9131 -0.44643,1.42857 -0.0685,0.20555 -0.11006,0.41945 -0.17857,0.625 -0.0804,0.24124 -0.19201,0.47158 -0.26786,0.71429 -0.0732,0.23425 -0.0748,0.49189 -0.17857,0.71428 -0.10827,0.23201 -0.3007,0.4145 -0.44643,0.625 -1.37597,1.98751 0.74407,-0.99209 -0.80357,1.07143 -0.5817,0.7756 -0.19282,0.26919 -0.53572,1.16072 -0.24749,0.64348 -0.30328,0.40343 -0.44642,1.07143 -0.36122,1.68568 0.15124,-0.25513 -0.0893,1.42857 -0.0266,0.18634 -0.14763,0.35004 -0.17857,0.53571 -0.0294,0.17614 0,0.35714 0,0.53572 0,0.11904 0,0.23809 0,0.35714 0,0.0298 0.0133,0.0627 0,0.0893 -0.0188,0.0377 -0.0705,0.0516 -0.0893,0.0893 -0.0281,0.0561 0.0281,0.30102 0,0.35714 -0.0188,0.0376 -0.0705,0.0516 -0.0893,0.0893 -0.0133,0.0266 0.021,0.0682 0,0.0893 -0.0421,0.0421 -0.12534,-0.0266 -0.17857,0 -0.0377,0.0188 -0.0595,0.0595 -0.0893,0.0893 -0.0298,0.0298 -0.0595,0.0595 -0.0893,0.0893"
       id="path3167"
       inkscape:connector-curvature="0"
       inkscape:export-xdpi="190.67792"
       inkscape:export-ydpi="190.67792"
       inkscape:export-filename="/home/tom/Programming/C/beware-the-jabberwock/assets/son/down.png" />
    <path
       style="fill:none;stroke:#000000;stroke-width:1px;stroke-linecap:butt;stroke-linejoin:miter;stroke-opacity:1"
       d="m 380.76438,424.2367 c -0.0211,0.0842 -0.0421,0.16836 -0.0631,0.25254 -0.021,0.0211 -0.0498,0.0365 -0.0631,0.0631 -0.0115,0.023 0,0.27929 0,0.31567 0,0.23149 0,0.46298 0,0.69448 0,0.35776 0,0.71552 0,1.07329 0,0.16835 0,0.33671 0,0.50507 0,0.0421 -0.0102,0.0854 0,0.12627 0.0114,0.0457 0.0482,0.0816 0.0631,0.12627 0.0119,0.0356 0,0.14792 0,0.1894 0,0.12627 0,0.25254 0,0.37881 0,0.0631 -0.0153,0.12815 0,0.1894 0.0114,0.0457 0.0517,0.0806 0.0631,0.12627 0.0215,0.086 -0.0255,0.30243 0,0.37881 0.009,0.0282 0.0498,0.0365 0.0631,0.0631 0.01,0.0192 0,0.20895 0,0.25254 0,0.24663 -0.0188,0.007 0.0631,0.25254 0.007,0.02 0,0.0421 0,0.0631 0,0.0421 0,0.0842 0,0.12626 0,0.0842 0,0.16836 0,0.25254 0,0.0211 -0.009,0.0443 0,0.0631 0.0133,0.0266 0.0498,0.0365 0.0631,0.0631 0.009,0.0188 0,0.0421 0,0.0631 0,0.021 0,0.0421 0,0.0631 0,0.31567 0,0.63135 0,0.94702 0,0.14731 0,0.29463 0,0.44194 0,0.0421 -0.0133,0.0863 0,0.12627 0.009,0.0282 0.0537,0.0349 0.0631,0.0631 0.0133,0.0399 0,0.0842 0,0.12627 0,0.12627 0,0.25254 0,0.37881 0,0.1894 0,0.37881 0,0.56821 0,0.0631 0.0104,0.12713 0,0.18941 -0.0109,0.0656 -0.0501,0.12414 -0.0631,0.1894 -0.008,0.0413 0.008,0.085 0,0.12627 -0.0131,0.0653 -0.0501,0.12414 -0.0631,0.1894 -0.0165,0.0825 0,0.16836 0,0.25254 0,0.021 0.007,0.0432 0,0.0631 -0.0149,0.0447 -0.0517,0.0806 -0.0631,0.12627 -0.0102,0.0408 0,0.0842 0,0.12627 0,0.10523 0,0.21045 0,0.31567 0,0.0211 0.007,0.0432 0,0.0631 -0.0149,0.0446 -0.0517,0.0806 -0.0631,0.12627 -0.008,0.0308 0.0167,0.21915 0,0.25254 -0.0133,0.0266 -0.0537,0.0349 -0.0631,0.0631 -0.0133,0.0399 0,0.0842 0,0.12627 0,0.0677 0.0139,0.40021 0,0.44194 -0.0149,0.0446 -0.0482,0.0816 -0.0631,0.12627 -0.0132,0.0397 0,0.25877 0,0.31567 0,0.0631 0.0153,0.12816 0,0.18941 -0.0114,0.0457 -0.0517,0.0806 -0.0631,0.12627 -0.0102,0.0408 0,0.0842 0,0.12627 0,0.0631 0,0.12626 0,0.1894 0,0.23149 0,0.46299 0,0.69448 0,0.73657 0,1.47314 0,2.20971 0,0.10522 0,0.21045 0,0.31567 0,0.0211 -0.0149,0.0482 0,0.0631 0.0149,0.0149 0.0483,-0.0149 0.0631,0 0.0173,0.0173 -0.0171,0.21829 0,0.25254 0.0133,0.0266 0.0537,0.0349 0.0631,0.0631 0.0133,0.0399 0,0.0842 0,0.12627 0,0.021 -0.009,0.0443 0,0.0631 0.0133,0.0266 0.0498,0.0365 0.0631,0.0631 0.009,0.0188 -0.009,0.0443 0,0.0631 0.0133,0.0266 0.0537,0.0349 0.0631,0.0631 0.01,0.0289 -0.014,0.22445 0,0.25254 0.0133,0.0266 0.0498,0.0365 0.0631,0.0631 0.006,0.0124 0,0.23839 0,0.0631"
       id="path3026"
       inkscape:connector-curvature="0" />
    <path
       style="fill:none;stroke:#000000;stroke-width:1px;stroke-linecap:butt;stroke-linejoin:miter;stroke-opacity:1"
       d="m 380.4487,441.09362 c 0.0293,0.22564 -0.18644,0.32883 -0.25254,0.50508 -0.0377,0.10048 -0.0371,0.21157 -0.0631,0.31567 -0.0372,0.14864 -0.0725,0.29849 -0.12627,0.44194 -0.0728,0.19408 -0.16748,0.3792 -0.25254,0.56822 -0.10435,0.23188 -0.23526,0.45324 -0.31567,0.69447 -0.10976,0.32927 -0.1661,0.67401 -0.25254,1.01016 -0.56412,2.19379 -0.0285,0.21161 -0.75761,2.39911 -0.23586,0.70756 -0.40889,1.43469 -0.63135,2.14657 -0.0993,0.31761 -0.23497,0.62421 -0.31567,0.94702 -2e-4,7.9e-4 -0.25155,1.63558 -0.25254,1.6415 -0.10732,0.64391 -0.11948,0.66391 -0.25254,1.26269 -0.0421,0.1894 -0.10062,0.37589 -0.12627,0.56821 -0.0167,0.12516 0.0248,0.25499 0,0.37881 -0.0185,0.0923 -0.10344,0.16123 -0.12627,0.25254 -0.0204,0.0817 0,0.16836 0,0.25253 0,0.0842 0,0.16836 0,0.25254 0,0.10523 0.0149,0.21151 0,0.31568 -0.0123,0.0859 -0.0524,0.16643 -0.0631,0.25253 -0.0108,0.0866 0.0135,0.50733 0,0.56821 -0.0204,0.0919 -0.10585,0.16067 -0.12627,0.25254 -0.0189,0.0852 0.0152,0.46215 0,0.56821 -0.009,0.0659 -0.0448,0.12542 -0.0631,0.18941 -0.0238,0.0834 -0.0421,0.16836 -0.0631,0.25254 -0.021,0.0842 -0.0489,0.16694 -0.0631,0.25253 -0.0351,0.21045 0.0526,0.0526 0,0.31568 -0.009,0.0461 -0.0517,0.0806 -0.0631,0.12627 -0.0255,0.10208 0.0206,0.21249 0,0.31567 -0.009,0.0461 -0.0517,0.0806 -0.0631,0.12627 -0.0102,0.0408 0.0102,0.0854 0,0.12627 -0.0114,0.0456 -0.0539,0.0801 -0.0631,0.12627 0,0.35904 0.0282,0.0416 -0.0631,0.31567 -0.0122,0.0368 0,0.33536 0,0.3788 0,0.0211 0,0.0421 0,0.0631 0,0.021 0.009,0.0443 0,0.0631 -0.0133,0.0266 -0.0498,0.0365 -0.0631,0.0631 -0.008,0.0166 0,0.21952 0,0.25254 0,0.1894 0,0.3788 0,0.56821 0,0.0241 0.006,0.30954 0,0.31567 -0.0149,0.0149 -0.0483,-0.0149 -0.0631,0 -0.0173,0.0173 0.0171,0.21829 0,0.25254 -0.0133,0.0266 -0.0537,0.0349 -0.0631,0.0631 -0.0133,0.0399 0,0.0842 0,0.12627 0,0.0211 0.009,0.0443 0,0.0631 -0.0133,0.0266 -0.0498,0.0365 -0.0631,0.0631 -0.009,0.0188 0.009,0.0443 0,0.0631 -0.0133,0.0266 -0.0498,0.0365 -0.0631,0.0631 -0.0125,0.025 0.0129,0.1765 0,0.1894 -0.0149,0.0149 -0.0483,-0.0149 -0.0631,0 -0.0298,0.0298 0.0188,0.0886 0,0.12627 -0.0133,0.0266 -0.0498,0.0365 -0.0631,0.0631 -0.009,0.0188 0.009,0.0443 0,0.0631 -0.0133,0.0266 -0.0466,0.0384 -0.0631,0.0631 -0.0261,0.0391 -0.0421,0.0842 -0.0631,0.12627 -0.0211,0.0421 -0.0482,0.0816 -0.0631,0.12626 -0.007,0.02 0.007,0.0432 0,0.0631 -0.0149,0.0446 -0.0517,0.0806 -0.0631,0.12627 -0.0102,0.0408 0.0133,0.0863 0,0.12627 -0.009,0.0282 -0.0466,0.0384 -0.0631,0.0631 -0.0261,0.0392 -0.0483,0.0816 -0.0631,0.12627 -0.0133,0.0399 0.0188,0.0886 0,0.12627 -0.20939,0.20939 0.0298,-0.0595 -0.0631,0.12627 -0.0133,0.0266 -0.0498,0.0365 -0.0631,0.0631 -0.0188,0.0377 0.0133,0.0863 0,0.12627 -0.0149,0.0446 -0.0482,0.0816 -0.0631,0.12627 -0.007,0.02 0.009,0.0443 0,0.0631 -0.0133,0.0266 -0.0498,0.0365 -0.0631,0.0631 -0.009,0.0188 0.009,0.0443 0,0.0631 -0.078,0.15603 -0.0631,-0.0218 -0.0631,0.12626"
       id="path3082"
       inkscape:connector-curvature="0" />
    <path
       style="fill:none;stroke:#000000;stroke-width:1px;stroke-linecap:butt;stroke-linejoin:miter;stroke-opacity:1"
       d="m 380.76438,441.28303 c 0.021,0.0842 0.0243,0.17493 0.0631,0.25254 0.0266,0.0532 0.0906,0.0786 0.12627,0.12626 0.0282,0.0376 0.0349,0.0886 0.0631,0.12627 0.0357,0.0476 0.0906,0.0787 0.12627,0.12627 0.0282,0.0376 0.0389,0.0859 0.0631,0.12627 0.13261,0.22102 0.29457,0.42083 0.44194,0.63135 0.087,0.12432 0.16616,0.25403 0.25254,0.3788 0.20609,0.29769 0.42089,0.58926 0.63134,0.88389 0.10523,0.14731 0.22253,0.2867 0.31567,0.44194 0.2005,0.40098 0.27446,0.57226 0.50508,0.94702 0.0795,0.12924 0.18467,0.24307 0.25254,0.3788 0.002,0.004 0.24908,0.74932 0.25254,0.75762 0.004,0.009 0.37736,0.75327 0.3788,0.75761 0.0405,0.12145 0.0227,0.25737 0.0631,0.37881 0.0893,0.26786 0.28952,0.48976 0.37881,0.75762 0.0405,0.12144 0.0263,0.25619 0.0631,0.3788 0.027,0.0902 0.0842,0.16836 0.12627,0.25254 0.021,0.0421 0.0389,0.0859 0.0631,0.12627 0.039,0.0651 0.0964,0.11966 0.12627,0.1894 0.0342,0.0798 0.0243,0.17493 0.0631,0.25254 0.0266,0.0532 0.0933,0.0767 0.12627,0.12627 0.0117,0.0175 -0.009,0.0443 0,0.0631 0.0133,0.0266 0.0498,0.0365 0.0631,0.0631 0.0188,0.0376 -0.0298,0.0965 0,0.12627 0.0149,0.0149 0.0483,-0.0149 0.0631,0 0.0173,0.0173 -0.0171,0.21829 0,0.25254 0.0133,0.0266 0.0498,0.0365 0.0631,0.0631 0.0188,0.0376 -0.0188,0.0886 0,0.12627 0.0133,0.0266 0.0421,0.0421 0.0631,0.0631 0,0.0421 -0.0133,0.0863 0,0.12627 0.009,0.0282 0.0537,0.0349 0.0631,0.0631 0.0133,0.0399 -0.0133,0.0863 0,0.12627 0.0657,0.19706 0.0421,-0.0211 0.12627,0.0631 0.003,0.003 0,0.22935 0,0.25254 0,0.21045 0,0.4209 0,0.63135 0,0.0631 0,0.12626 0,0.1894 0,0.0631 -0.0104,0.12713 0,0.1894 0.0109,0.0657 0.0522,0.12376 0.0631,0.18941 0.0173,0.10379 0,0.21044 0,0.31567 0,0.21045 0,0.4209 0,0.63134 0,0.14732 0.032,0.29814 0,0.44195 -0.0204,0.0919 -0.0965,0.16325 -0.12627,0.25253 -0.0133,0.0399 0.0133,0.0863 0,0.12627 -0.009,0.0282 -0.0421,0.0421 -0.0631,0.0631 -0.0211,0.0421 -0.0482,0.0816 -0.0631,0.12627 -0.007,0.02 0.007,0.0432 0,0.0631 -0.0149,0.0446 -0.0483,0.0816 -0.0631,0.12627 -0.007,0.02 0,0.0421 0,0.0631 -0.021,0.0631 -0.0384,0.12762 -0.0631,0.18941 -0.0175,0.0437 -0.0554,0.0799 -0.0631,0.12627 -0.0138,0.083 0.0165,0.16999 0,0.25254 -0.0261,0.13051 -0.0871,0.25159 -0.12627,0.3788 -0.0451,0.14644 -0.0739,0.29796 -0.12627,0.44194 -0.0322,0.0885 -0.10041,0.16205 -0.12627,0.25254 -0.0173,0.0607 0.0153,0.12816 0,0.18941 -0.007,0.0289 -0.0498,0.0365 -0.0631,0.0631 -0.009,0.0188 0.0149,0.0482 0,0.0631 -0.0149,0.0149 -0.0482,-0.0149 -0.0631,0 -0.0298,0.0298 0.0188,0.0886 0,0.12626 -0.0133,0.0266 -0.0498,0.0365 -0.0631,0.0631 -0.009,0.0188 0.009,0.0443 0,0.0631 -0.0266,0.0532 -0.0996,0.073 -0.12627,0.12627 -0.009,0.0188 0.007,0.0432 0,0.0631 -0.0149,0.0446 -0.0482,0.0816 -0.0631,0.12627 -0.007,0.02 0.009,0.0443 0,0.0631 -0.0133,0.0266 -0.0466,0.0384 -0.0631,0.0631 -0.0261,0.0392 -0.037,0.0871 -0.0631,0.12626 -0.0165,0.0248 -0.0498,0.0365 -0.0631,0.0631 -0.009,0.0188 0.007,0.0432 0,0.0631 -0.0298,0.0893 -0.0842,0.16836 -0.12627,0.25254 -0.0421,0.0842 -0.0741,0.17423 -0.12626,0.25254 -0.033,0.0495 -0.0996,0.073 -0.12627,0.12627 -0.009,0.0188 0.009,0.0443 0,0.0631 -0.0133,0.0266 -0.0498,0.0365 -0.0631,0.0631 -0.009,0.0188 0.009,0.0443 0,0.0631 -0.0133,0.0266 -0.0498,0.0365 -0.0631,0.0631 -0.009,0.0188 0.0149,0.0482 0,0.0631 -0.0149,0.0149 -0.0483,-0.0149 -0.0631,0 -6e-5,6e-5 10e-5,0.18912 0,0.18941 -0.009,0.0282 -0.0498,0.0365 -0.0631,0.0631 -0.009,0.0188 0.009,0.0443 0,0.0631 -0.0133,0.0266 -0.0498,0.0365 -0.0631,0.0631 -0.0125,0.025 0.0129,0.1765 0,0.1894 -0.0149,0.0149 -0.0482,-0.0149 -0.0631,0 -0.022,0.022 0.0262,0.1763 0,0.18941 -0.0376,0.0188 -0.0965,-0.0298 -0.12627,0 -0.0631,0.0631 0.0316,0.12626 0,0.1894 -0.0133,0.0266 -0.0498,0.0365 -0.0631,0.0631 -0.0188,0.0376 0.0188,0.0886 0,0.12627 -0.0133,0.0266 -0.0421,0.0421 -0.0631,0.0631 0,0.0421 0.0133,0.0863 0,0.12627 -0.009,0.0282 -0.0498,0.0365 -0.0631,0.0631 -0.0337,0.0674 0.0337,0.0589 0,0.12627 -0.0133,0.0266 -0.0498,0.0365 -0.0631,0.0631 -0.0125,0.025 0.0129,0.1765 0,0.18941 -0.0149,0.0149 -0.0483,-0.0149 -0.0631,0 -0.0316,0.0316 0.0316,0.15783 0,0.1894 -0.0149,0.0149 -0.0483,-0.0149 -0.0631,0 -0.0129,0.0129 0.0125,0.16437 0,0.18941 -0.0133,0.0266 -0.0421,0.0421 -0.0631,0.0631"
       id="path3088"
       inkscape:connector-curvature="0"
       inkscape:export-filename="/home/tom/Programming/C/beware-the-jabberwock/assets/son/down_3.png"
       inkscape:export-xdpi="90"
       inkscape:export-ydpi="90" />
  </g>
</svg>
